<svg width="74" height="82" viewBox="0 0 74 82" fill="none" xmlns="http://www.w3.org/2000/svg">
    <path fill-rule="evenodd" clip-rule="evenodd" d="M15 0C6.71573 0 0 6.71575 0 15V66.0096C0 74.2939 6.71574 81.0096 15 81.0096H58.0848C66.369 81.0096 73.0848 74.2939 73.0848 66.0096V0H15ZM55.6263 68.819V58.3582H31.7725L44.5315 46.3124C48.177 42.9312 50.6337 39.9197 51.9016 37.2781C53.1696 34.6365 53.8036 31.8099 53.8036 28.7985C53.8036 25.4701 52.9319 22.5907 51.1884 20.1604C49.4978 17.6773 47.0939 15.7753 43.9768 14.4545C40.9125 13.0809 37.3199 12.394 33.199 12.394C28.2856 12.394 23.9269 13.3186 20.123 15.1677C16.319 16.964 13.334 19.4736 11.1679 22.6964L20.5192 28.7192C21.84 26.8701 23.4778 25.4965 25.4326 24.5983C27.3874 23.6473 29.58 23.1718 32.0102 23.1718C34.916 23.1718 37.1086 23.7794 38.5879 24.9946C40.12 26.1569 40.8861 27.8475 40.8861 30.0665C40.8861 31.5986 40.4898 33.1572 39.6974 34.7421C38.9049 36.2743 37.3727 38.1234 35.1009 40.2895L13.7038 60.4979V68.819H55.6263Z" fill="white"/>
</svg>
