<svg width="75" height="81" viewBox="0 0 75 81" fill="none" xmlns="http://www.w3.org/2000/svg">
    <path fill-rule="evenodd" clip-rule="evenodd" d="M15 0C6.71573 0 0 6.71573 0 15V66C0 74.2843 6.71573 81 15 81H60C68.2843 81 75 74.2843 75 66V0H15ZM52.2676 41.399C49.6788 38.546 45.9542 36.7233 41.0936 35.9308L53.6149 21.6661V13.345H14.7831V23.6473H38.3991L26.9873 36.5648V45.0444H32.8517C39.7728 45.0444 43.2333 47.3162 43.2333 51.8598C43.2333 54.1316 42.3087 55.9014 40.4596 57.1694C38.6105 58.3846 36.0745 58.9921 32.8517 58.9921C29.946 58.9921 27.093 58.5695 24.2929 57.7242C21.5456 56.826 19.1153 55.5845 17.002 53.9995L12.0094 63.8263C14.651 65.7283 17.8473 67.2076 21.5984 68.2642C25.4024 69.268 29.2591 69.7699 33.1687 69.7699C38.1878 69.7699 42.4144 68.951 45.8485 67.3132C49.3354 65.6754 51.9242 63.5093 53.6149 60.8149C55.3055 58.0676 56.1508 55.0825 56.1508 51.8598C56.1508 47.686 54.8564 44.1991 52.2676 41.399Z" fill="white"/>
</svg>
