<svg width="12" height="16" viewBox="0 0 12 16" fill="none" xmlns="http://www.w3.org/2000/svg">
    <path fill-rule="evenodd" clip-rule="evenodd" d="M11.9702 6.5183C12.2075 4.92946 10.9978 4.07534 9.34369 3.50556L9.88026 1.35328L8.56979 1.02678L8.04739 3.12234C7.70336 3.03652 7.34962 2.95555 6.99812 2.87532L7.52425 0.765952L6.2149 0.439453L5.67794 2.59099C5.39286 2.52606 5.11301 2.46188 4.84136 2.39434L4.84285 2.38762L3.0361 1.9365L2.68759 3.33578C2.68759 3.33578 3.65962 3.55854 3.6391 3.57235C4.16971 3.70481 4.26598 4.05594 4.24956 4.3343L3.63835 6.78622C3.67492 6.79554 3.72231 6.80898 3.77455 6.82987L3.63649 6.79554L2.77938 10.2303C2.71446 10.3915 2.5499 10.6333 2.179 10.5415C2.19206 10.5605 1.22674 10.3038 1.22674 10.3038L0.576355 11.8038L2.28161 12.2289C2.47412 12.2771 2.6643 12.3267 2.85238 12.3758L2.85262 12.3758C2.97434 12.4076 3.09518 12.4391 3.21521 12.4699L2.67304 14.6472L3.98164 14.9737L4.51897 12.8199C4.87606 12.9169 5.22309 13.0065 5.56264 13.0908L5.02756 15.2345L6.33766 15.561L6.87983 13.3882C9.11383 13.811 10.7941 13.6405 11.5004 11.6203C12.0702 9.99337 11.4725 9.05492 10.2971 8.44259C11.153 8.24445 11.7978 7.68138 11.9699 6.5183H11.9702ZM8.97634 10.7156C8.60442 12.2088 6.2667 11.591 5.19805 11.3085L5.19801 11.3085C5.10232 11.2832 5.01682 11.2606 4.9438 11.2425L5.66322 8.35847C5.75247 8.38074 5.86151 8.40521 5.98504 8.43293C7.09061 8.68102 9.35632 9.18944 8.97672 10.7156H8.97634ZM6.20751 7.09456C7.09919 7.33245 9.04285 7.85099 9.38145 6.49455C9.72762 5.10687 7.8376 4.68861 6.91455 4.48435C6.81078 4.46138 6.71923 4.44112 6.64446 4.42249L5.99221 7.03822C6.05393 7.05359 6.12636 7.07292 6.20751 7.09456Z" fill="#F7931A"/>
</svg>
