<svg width="41" height="42" viewBox="0 0 41 42" fill="none" xmlns="http://www.w3.org/2000/svg">
    <path d="M34.3629 16.9319C36.6103 24.7691 32.078 32.9446 24.24 35.1924C16.4052 37.4384 8.22936 32.9063 5.98261 25.0693C3.73397 17.2318 8.26545 9.05574 16.1014 6.80906C23.939 4.56145 32.1149 9.09459 34.3625 16.9322L34.3629 16.9319Z" fill="#2A822A"/>
    <path fill-rule="evenodd" clip-rule="evenodd" d="M23.1657 17.2906C22.6716 16.0367 21.4344 15.9235 19.9935 16.2034L19.4806 14.4146L18.3915 14.7271L18.891 16.4688C18.605 16.5507 18.314 16.6403 18.025 16.7294L17.5224 14.9762L16.4341 15.2882L16.9465 17.0766C16.7122 17.1491 16.4819 17.2198 16.2562 17.2847L16.2545 17.2792L14.7525 17.7093L15.0863 18.8722C15.0863 18.8722 15.886 18.6263 15.8768 18.6449C16.3179 18.5186 16.5352 18.7333 16.64 18.9425L17.2244 20.9803C17.2549 20.9717 17.295 20.9616 17.3417 20.9549L17.227 20.9879L18.0451 23.843C18.0655 23.9873 18.0474 24.232 17.7394 24.3209C17.7569 24.3293 16.9478 24.5477 16.9478 24.5477L17.1045 25.9104L18.5218 25.5038C18.6818 25.4582 18.8406 25.4145 18.9978 25.3712L18.9981 25.3712C19.0999 25.3432 19.201 25.3154 19.3012 25.2873L19.8206 27.0967L20.9083 26.785L20.3953 24.9947C20.6954 24.9154 20.9851 24.8349 21.2672 24.7538L21.7777 26.5358L22.8665 26.2234L22.349 24.4173C24.1495 23.7874 25.2987 22.9586 24.9645 21.1945C24.696 19.7735 23.8681 19.3424 22.7572 19.3906C23.296 18.8875 23.5283 18.208 23.1654 17.2907L23.1657 17.2906ZM22.7513 21.5961C23.1074 22.837 21.1498 23.3687 20.2549 23.6118C20.1747 23.6336 20.1031 23.653 20.0424 23.6705L19.3554 21.2733C19.4295 21.252 19.519 21.2241 19.6204 21.1924C20.5277 20.9089 22.3872 20.3279 22.7516 21.5959L22.7513 21.5961ZM19.2205 20.1268C19.9681 19.9256 21.5978 19.487 21.2748 18.3595C20.9443 17.206 19.3956 17.695 18.6393 17.9338C18.5542 17.9606 18.4792 17.9843 18.4171 18.0021L19.0404 20.1762C19.0917 20.1615 19.1524 20.1451 19.2205 20.1268Z" fill="white"/>
</svg>
