<svg width="30" height="30" viewBox="0 0 30 30" fill="none" xmlns="http://www.w3.org/2000/svg">
    <path d="M29.0907 18.3393C27.1184 26.2502 19.1056 31.0642 11.1938 29.0919C3.28564 27.1196 -1.52881 19.1067 0.443948 11.1963C2.41532 3.28451 10.4277 -1.5304 18.3372 0.441896C26.2486 2.41419 31.0625 10.428 29.0902 18.3393H29.0907Z" fill="#F7931A"/>
    <path fill-rule="evenodd" clip-rule="evenodd" d="M19.2143 13.0513C19.4134 11.7183 18.3985 11.0017 17.0107 10.5237L17.4609 8.71805L16.3614 8.44413L15.9232 10.2022C15.6345 10.1302 15.3378 10.0623 15.0429 9.99498L15.4843 8.2253L14.3858 7.95139L13.9353 9.75643C13.6961 9.70196 13.4613 9.64812 13.2334 9.59146L13.2347 9.58582L11.7189 9.20734L11.4265 10.3813C11.4265 10.3813 12.242 10.5682 12.2248 10.5798C12.67 10.6909 12.7507 10.9855 12.7369 11.219L12.2242 13.2761C12.2548 13.2839 12.2946 13.2952 12.3384 13.3127L12.2226 13.2839L11.5035 16.1655C11.4491 16.3008 11.311 16.5036 10.9998 16.4266C11.0108 16.4426 10.2009 16.2272 10.2009 16.2272L9.65527 17.4857L11.0859 17.8422C11.2473 17.8827 11.4067 17.9243 11.5644 17.9654L11.5647 17.9655C11.6669 17.9921 11.7684 18.0186 11.8692 18.0444L11.4143 19.8711L12.5122 20.145L12.963 18.3381C13.2626 18.4195 13.5537 18.4946 13.8386 18.5654L13.3897 20.3638L14.4888 20.6378L14.9436 18.8149C16.8179 19.1695 18.2275 19.0265 18.8201 17.3316C19.2982 15.9667 18.7967 15.1794 17.8106 14.6657C18.5287 14.4995 19.0696 14.0271 19.214 13.0513H19.2143ZM16.7027 16.5728C16.3906 17.8255 14.4294 17.3072 13.5328 17.0702C13.4525 17.049 13.3808 17.0301 13.3195 17.0148L13.9231 14.5953C13.998 14.6139 14.0895 14.6345 14.1931 14.6577C15.1206 14.8659 17.0215 15.2924 16.703 16.5728H16.7027ZM14.3795 13.5349C15.1276 13.7345 16.7582 14.1696 17.0423 13.0316C17.3327 11.8673 15.7471 11.5165 14.9727 11.3451C14.8856 11.3258 14.8088 11.3088 14.7461 11.2932L14.1989 13.4877C14.2506 13.5006 14.3114 13.5168 14.3795 13.5349Z" fill="white"/>
</svg>
