<svg width="30" height="30" viewBox="0 0 30 30" fill="none" xmlns="http://www.w3.org/2000/svg">
    <path d="M14.7668 29.5337C22.9224 29.5337 29.5337 22.9224 29.5337 14.7668C29.5337 6.61134 22.9224 0 14.7668 0C6.61134 0 0 6.61134 0 14.7668C0 22.9224 6.61134 29.5337 14.7668 29.5337Z" fill="#3A9AB8"/>
    <mask id="mask0_3_4227" style="mask-type:alpha" maskUnits="userSpaceOnUse" x="0" y="0" width="30" height="30">
        <path d="M14.7668 29.5337C22.9224 29.5337 29.5337 22.9224 29.5337 14.7668C29.5337 6.61134 22.9224 0 14.7668 0C6.61134 0 0 6.61134 0 14.7668C0 22.9224 6.61134 29.5337 14.7668 29.5337Z" fill="white"/>
    </mask>
    <g mask="url(#mask0_3_4227)">
        <path fill-rule="evenodd" clip-rule="evenodd" d="M11.3591 14.0013L15.3511 11.4063L19.3105 14.0174L15.3337 6.81546L11.3591 14.0013ZM11.5114 14.7507L15.3555 12.2176L19.1495 14.7319L15.3577 17.2678L11.5114 14.7507ZM11.3591 15.476C12.7601 16.3947 14.2221 17.3564 15.3511 18.1005L19.3105 15.476C17.8769 18.1059 16.6825 20.2952 15.3511 22.7182L14.5346 21.2382L14.5346 21.2381C13.4378 19.2501 12.3067 17.2001 11.3591 15.476Z" fill="white"/>
        <path fill-rule="evenodd" clip-rule="evenodd" d="M15.3348 6.81546L15.3497 11.4063L19.3105 14.0174L15.3348 6.81546ZM15.3534 12.2176L19.1725 14.7319L15.3553 17.2678L15.3534 12.2176ZM15.3497 18.1005L19.3105 15.476C18.082 18.1059 15.3497 22.7182 15.3497 22.7182V18.1005Z" fill="#BDBDBD"/>
    </g>
</svg>
