<svg width="107" height="24" viewBox="0 0 107 24" fill="none" xmlns="http://www.w3.org/2000/svg">
    <path d="M53.399 9.1716C51.1862 9.1716 49.4345 10.7692 49.4345 12.9882C49.4345 15.1183 51.1862 16.8047 53.399 16.8047C55.6118 16.8047 57.3635 15.2071 57.3635 12.9882C57.3635 10.6805 55.6118 9.1716 53.399 9.1716ZM53.399 15.2071C52.2004 15.2071 51.1862 14.2308 51.1862 12.8994C51.1862 11.568 52.2004 10.5917 53.399 10.5917C54.5976 10.5917 55.6118 11.4793 55.6118 12.8994C55.6118 14.2308 54.5976 15.2071 53.399 15.2071ZM44.8245 9.1716C42.6118 9.1716 40.86 10.7692 40.86 12.9882C40.86 15.1183 42.6118 16.8047 44.8245 16.8047C47.0373 16.8047 48.7891 15.2071 48.7891 12.9882C48.7891 10.6805 47.0373 9.1716 44.8245 9.1716ZM44.8245 15.2071C43.6259 15.2071 42.6118 14.2308 42.6118 12.8994C42.6118 11.568 43.6259 10.5917 44.8245 10.5917C46.0231 10.5917 47.0373 11.4793 47.0373 12.8994C47.0373 14.2308 46.0231 15.2071 44.8245 15.2071ZM34.5905 10.3254V11.9231H38.555C38.4628 12.8107 38.094 13.5207 37.633 13.9645C37.0798 14.497 36.1579 15.1183 34.5905 15.1183C32.1011 15.1183 30.2571 13.2544 30.2571 10.858C30.2571 8.46154 32.1933 6.59763 34.5905 6.59763C35.8813 6.59763 36.8954 7.13018 37.633 7.75148L38.8316 6.59763C37.8174 5.71006 36.5266 5 34.6827 5C31.3635 5 28.5054 7.66272 28.5054 10.858C28.5054 14.0533 31.3635 16.716 34.6827 16.716C36.5266 16.716 37.8174 16.1834 38.9238 15.0296C40.0302 13.9645 40.399 12.4556 40.399 11.3018C40.399 10.9467 40.399 10.5917 40.3068 10.3254H34.5905ZM76.4486 11.568C76.0798 10.6805 75.1579 9.1716 73.1295 9.1716C71.1011 9.1716 69.4415 10.6805 69.4415 12.9882C69.4415 15.1183 71.1011 16.8047 73.3139 16.8047C75.0657 16.8047 76.172 15.7396 76.5408 15.1183L75.2501 14.2308C74.7891 14.8521 74.2359 15.2959 73.3139 15.2959C72.3919 15.2959 71.8387 14.9408 71.3777 14.142L76.633 12.0118L76.4486 11.568ZM71.1011 12.8107C71.1011 11.3905 72.2997 10.5917 73.1295 10.5917C73.7749 10.5917 74.4203 10.9467 74.6047 11.3905L71.1011 12.8107ZM66.7678 16.4497H68.5196V5.35503H66.7678V16.4497ZM64.0018 9.97041C63.5408 9.52663 62.8032 9.08284 61.8813 9.08284C59.9451 9.08284 58.1011 10.7692 58.1011 12.8994C58.1011 15.0296 59.8529 16.6272 61.8813 16.6272C62.8032 16.6272 63.5408 16.1834 63.9096 15.7396H64.0018V16.2722C64.0018 17.6923 63.172 18.4911 61.8813 18.4911C60.8671 18.4911 60.1295 17.7811 59.9451 17.1598L58.4699 17.7811C58.9309 18.7574 60.0373 20 61.9735 20C64.0018 20 65.6614 18.8462 65.6614 16.0947V9.34911H64.0018V9.97041ZM61.9735 15.2071C60.7749 15.2071 59.7607 14.2308 59.7607 12.8994C59.7607 11.568 60.7749 10.5917 61.9735 10.5917C63.172 10.5917 64.094 11.568 64.094 12.8994C64.094 14.2308 63.172 15.2071 61.9735 15.2071ZM84.4699 5.35503H80.321V16.4497H82.0727V12.2781H84.4699C86.4061 12.2781 88.2501 10.9467 88.2501 8.81657C88.2501 6.68639 86.4061 5.35503 84.4699 5.35503ZM84.5621 10.6805H82.0727V6.86391H84.5621C85.8529 6.86391 86.5905 7.92899 86.5905 8.72781C86.4983 9.70414 85.7607 10.6805 84.5621 10.6805ZM95.1649 9.08284C93.8742 9.08284 92.5834 9.61538 92.1224 10.7692L93.6898 11.3905C94.0586 10.7692 94.6118 10.5917 95.2571 10.5917C96.1791 10.5917 97.0089 11.1243 97.1011 12.0118V12.1006C96.8245 11.9231 96.0869 11.6568 95.3493 11.6568C93.6898 11.6568 92.0302 12.5444 92.0302 14.142C92.0302 15.6509 93.4132 16.6272 94.8884 16.6272C96.0869 16.6272 96.6401 16.0947 97.1011 15.5621H97.1933V16.4497H98.8529V12.1893C98.6685 10.2367 97.1011 9.08284 95.1649 9.08284ZM94.9805 15.2071C94.4274 15.2071 93.5976 14.9408 93.5976 14.2308C93.5976 13.3432 94.6118 13.0769 95.4415 13.0769C96.1791 13.0769 96.5479 13.2544 97.0089 13.432C96.8245 14.497 95.9025 15.2071 94.9805 15.2071ZM104.661 9.34911L102.725 14.142H102.633L100.605 9.34911H98.7607L101.803 16.0947L100.051 19.8225H101.803L106.505 9.34911H104.661ZM89.172 16.4497H90.9238V5.35503H89.172V16.4497Z" fill="#22272F"/>
    <path d="M0.368921 0.325439C0.09223 0.602131 0 1.06328 0 1.61666V21.9996C0 22.553 0.184461 23.0141 0.461152 23.2908L0.553383 23.383L11.99 11.9465V11.762L0.368921 0.325439Z" fill="url(#paint0_linear_3_3908)"/>
    <path d="M15.6792 15.8201L11.8977 12.0386V11.7619L15.6792 7.98047L15.7714 8.0727L20.2907 10.6552C21.5819 11.393 21.5819 12.592 20.2907 13.3298L15.6792 15.8201Z" fill="url(#paint1_linear_3_3908)"/>
    <path d="M15.7714 15.7279L11.8978 11.8542L0.368958 23.383C0.830109 23.8442 1.47572 23.8442 2.3058 23.4753L15.7714 15.7279Z" fill="url(#paint2_linear_3_3908)"/>
    <path d="M15.7714 7.98053L2.3058 0.325402C1.47572 -0.13575 0.830109 -0.0435201 0.368958 0.417632L11.8978 11.8542L15.7714 7.98053Z" fill="url(#paint3_linear_3_3908)"/>
    <path opacity="0.2" d="M15.6792 15.6355L2.3058 23.1984C1.56795 23.6595 0.92234 23.5673 0.461188 23.1984L0.368958 23.2906L0.461188 23.3829C0.92234 23.7518 1.56795 23.844 2.3058 23.3829L15.6792 15.6355Z" fill="black"/>
    <path opacity="0.12" d="M0.368921 23.1986C0.09223 22.9219 0 22.4607 0 21.9074V21.9996C0 22.553 0.184461 23.0141 0.461152 23.2908V23.1986H0.368921ZM20.2907 13.0532L15.6792 15.6357L15.7714 15.7279L20.2907 13.1455C20.9363 12.7766 21.213 12.3154 21.213 11.8542C21.213 12.3154 20.8441 12.6843 20.2907 13.0532Z" fill="black"/>
    <path opacity="0.25" d="M2.30576 0.417628L20.2907 10.6552C20.8441 11.0241 21.213 11.393 21.213 11.8542C21.213 11.393 20.9363 10.9319 20.2907 10.563L2.30576 0.325398C1.01453 -0.412446 0 0.140936 0 1.61662V1.70885C0 0.325398 1.01453 -0.320215 2.30576 0.417628Z" fill="white"/>
    <defs>
        <linearGradient id="paint0_linear_3_3908" x1="10.8832" y1="1.44143" x2="-4.59584" y2="16.9195" gradientUnits="userSpaceOnUse">
            <stop stop-color="#00A0FF"/>
            <stop offset="0.007" stop-color="#00A1FF"/>
            <stop offset="0.26" stop-color="#00BEFF"/>
            <stop offset="0.512" stop-color="#00D2FF"/>
            <stop offset="0.76" stop-color="#00DFFF"/>
            <stop offset="1" stop-color="#00E3FF"/>
        </linearGradient>
        <linearGradient id="paint1_linear_3_3908" x1="21.9822" y1="11.8551" x2="-0.334782" y2="11.8551" gradientUnits="userSpaceOnUse">
            <stop stop-color="#FFE000"/>
            <stop offset="0.409" stop-color="#FFBD00"/>
            <stop offset="0.775" stop-color="#FFA500"/>
            <stop offset="1" stop-color="#FF9C00"/>
        </linearGradient>
        <linearGradient id="paint2_linear_3_3908" x1="13.675" y1="13.9719" x2="-7.31476" y2="34.9617" gradientUnits="userSpaceOnUse">
            <stop stop-color="#FF3A44"/>
            <stop offset="1" stop-color="#C31162"/>
        </linearGradient>
        <linearGradient id="paint3_linear_3_3908" x1="-2.49295" y1="-6.42955" x2="6.88042" y2="2.94382" gradientUnits="userSpaceOnUse">
            <stop stop-color="#32A071"/>
            <stop offset="0.069" stop-color="#2DA771"/>
            <stop offset="0.476" stop-color="#15CF74"/>
            <stop offset="0.801" stop-color="#06E775"/>
            <stop offset="1" stop-color="#00F076"/>
        </linearGradient>
    </defs>
</svg>
