<svg width="10" height="16" viewBox="0 0 10 16" fill="none" xmlns="http://www.w3.org/2000/svg">
    <path fill-rule="evenodd" clip-rule="evenodd" d="M0.82235 7.70802L5.20387 5.23959L9.54957 7.72335L5.18477 0.872559L0.82235 7.70802ZM0.989452 8.42126L5.2086 6.0116L9.37284 8.40337L5.21099 10.8156L0.989452 8.42126ZM0.822453 9.11091C2.36016 9.98483 3.96473 10.8996 5.20397 11.6075L9.54967 9.11091C7.97615 11.6126 6.66527 13.6951 5.20397 16L4.30766 14.5919L4.30735 14.5914C3.10367 12.7006 1.86241 10.7507 0.822453 9.11091Z" fill="#3A9AB8"/>
    <path fill-rule="evenodd" clip-rule="evenodd" d="M5.18606 0.872559L5.20243 5.23959L9.54967 7.72335L5.18606 0.872559ZM5.20661 6.0116L9.39835 8.40337L5.20865 10.8156L5.20661 6.0116ZM5.20243 11.6075L9.54967 9.11091C8.2013 11.6126 5.20243 16 5.20243 16V11.6075Z" fill="#2B7B94"/>
</svg>
