<svg width="10" height="10" viewBox="0 0 10 10" fill="none" xmlns="http://www.w3.org/2000/svg">
    <path d="M5 2.79357C4.76087 2.79357 4.56522 2.59792 4.56522 2.35879V0.489226C4.56522 0.250095 4.76087 0.0544434 5 0.0544434C5.23913 0.0544434 5.43478 0.250095 5.43478 0.489226V2.35879C5.43478 2.59792 5.23913 2.79357 5 2.79357ZM3.70652 3.21749C3.90217 3.07618 3.94565 2.80444 3.80435 2.60879L2.69565 1.09792C2.55435 0.902269 2.28261 0.858791 2.08696 1.0001C1.89131 1.1414 1.84783 1.41314 1.98913 1.60879L3.08696 3.11966C3.17391 3.23923 3.30435 3.29357 3.43478 3.29357C3.53261 3.30444 3.63044 3.27183 3.70652 3.21749ZM2.90217 4.31531C2.97826 4.08705 2.84783 3.83705 2.61957 3.77183L0.836957 3.19575C0.608697 3.11966 0.358697 3.25009 0.293479 3.47836C0.217392 3.69575 0.347827 3.94575 0.576088 4.02183L2.3587 4.59792C2.40217 4.60879 2.44565 4.61966 2.48913 4.61966C2.67391 4.61966 2.83696 4.50009 2.90217 4.31531ZM0.836957 6.80444L2.61957 6.22835C2.84783 6.15227 2.97826 5.91314 2.90217 5.68488C2.82609 5.45662 2.58696 5.33705 2.3587 5.40227L0.576088 5.97835C0.347827 6.05444 0.217392 6.29357 0.293479 6.52183C0.347827 6.70662 0.52174 6.82618 0.706523 6.82618C0.750001 6.82618 0.793479 6.82618 0.836957 6.80444ZM2.69565 8.90227L3.80435 7.3914C3.94565 7.19575 3.90217 6.92401 3.70652 6.7827C3.51087 6.6414 3.23913 6.68488 3.09783 6.88053L2 8.3914C1.8587 8.58705 1.90217 8.85879 2.09783 9.00009C2.17391 9.05444 2.26087 9.08705 2.34783 9.08705C2.47826 9.08705 2.6087 9.02183 2.69565 8.90227ZM5.43478 9.51096V7.6414C5.43478 7.40227 5.23913 7.20662 5 7.20662C4.76087 7.20662 4.56522 7.40227 4.56522 7.6414V9.51096C4.56522 9.75009 4.76087 9.94575 5 9.94575C5.23913 9.94575 5.43478 9.75009 5.43478 9.51096ZM7.91304 9.00009C8.1087 8.85879 8.15217 8.58705 8.01087 8.3914L6.90217 6.88053C6.76087 6.68488 6.48913 6.6414 6.29348 6.7827C6.09783 6.92401 6.05435 7.19575 6.19565 7.3914L7.29348 8.90227C7.38043 9.02183 7.51087 9.07618 7.64131 9.07618C7.73913 9.08705 7.83696 9.05444 7.91304 9.00009ZM9.70652 6.5327C9.78261 6.30444 9.65217 6.05444 9.42391 5.98922L7.64131 5.41314C7.41304 5.33705 7.16304 5.46749 7.09783 5.69575C7.02174 5.92401 7.15217 6.17401 7.38044 6.23922L9.16304 6.81531C9.20652 6.82618 9.25 6.83705 9.29348 6.83705C9.47826 6.82618 9.65217 6.70662 9.70652 6.5327ZM7.64131 4.59792L9.42391 4.02183C9.65217 3.94575 9.78261 3.70662 9.70652 3.47836C9.63044 3.25009 9.3913 3.13053 9.16304 3.19575L7.38044 3.77183C7.15217 3.84792 7.02174 4.08705 7.09783 4.31531C7.15217 4.50009 7.32609 4.61966 7.51087 4.61966C7.55435 4.61966 7.59783 4.60879 7.64131 4.59792ZM6.90217 3.11966L8 1.60879C8.1413 1.41314 8.09783 1.1414 7.90217 1.0001C7.70652 0.858791 7.43478 0.902269 7.29348 1.09792L6.19565 2.60879C6.05435 2.80444 6.09783 3.07618 6.29348 3.21749C6.36957 3.27183 6.45652 3.30444 6.54348 3.30444C6.68478 3.30444 6.81522 3.23923 6.90217 3.11966Z" fill="#333333"/>
</svg>
