<svg width="20" height="20" viewBox="0 0 20 20" fill="none" xmlns="http://www.w3.org/2000/svg">
    <path d="M10 0C9.4 0 9 0.4 9 1V4C9 4.6 9.4 5 10 5C10.6 5 11 4.6 11 4V1C11 0.4 10.6 0 10 0ZM12.5 5.7C12.7 5.8 12.8 5.8 13 5.8C13.3 5.8 13.7 5.6 13.9 5.3L15.4 2.7C15.7 2.2 15.5 1.6 15 1.3C14.5 1 13.9 1.2 13.6 1.7L12.1 4.3C11.9 4.8 12 5.4 12.5 5.7ZM14.3 7.5C14.5 7.8 14.8 8 15.2 8C15.4 8 15.5 8 15.7 7.9L18.3 6.4C18.8 6.1 18.9 5.5 18.7 5C18.4 4.5 17.8 4.4 17.3 4.6L14.7 6.1C14.2 6.4 14.1 7 14.3 7.5ZM19 9H16C15.4 9 15 9.4 15 10C15 10.6 15.4 11 16 11H19C19.6 11 20 10.6 20 10C20 9.5 19.6 9 19 9ZM18.3 13.7L15.7 12.2C15.2 11.9 14.6 12.1 14.3 12.6C14 13.1 14.2 13.7 14.7 14L17.3 15.5C17.5 15.6 17.6 15.6 17.8 15.6C18.1 15.6 18.5 15.4 18.7 15.1C18.9 14.5 18.8 13.9 18.3 13.7ZM13.8 14.7C13.5 14.2 12.9 14.1 12.4 14.3C11.9 14.6 11.8 15.2 12 15.7L13.5 18.3C13.7 18.6 14 18.8 14.4 18.8C14.6 18.8 14.7 18.8 14.9 18.7C15.4 18.4 15.5 17.8 15.3 17.3L13.8 14.7ZM10 15C9.5 15 9 15.4 9 16V19C9 19.6 9.4 20 10 20C10.5 20 11 19.6 11 19V16C11 15.5 10.5 15 10 15ZM7.5 14.3C7 14 6.4 14.2 6.1 14.7L4.6 17.3C4.3 17.8 4.5 18.4 5 18.7C5.2 18.8 5.3 18.8 5.5 18.8C5.8 18.8 6.2 18.6 6.4 18.3L7.9 15.7C8.1 15.2 8 14.6 7.5 14.3ZM5.7 12.5C5.4 12 4.8 11.9 4.3 12.1L1.7 13.6C1.2 13.9 1.1 14.5 1.3 15C1.5 15.3 1.8 15.5 2.2 15.5C2.4 15.5 2.5 15.5 2.7 15.4L5.3 13.9C5.8 13.6 5.9 13 5.7 12.5ZM4 11C4.5 11 5 10.6 5 10C5 9.4 4.6 9 4 9H1C0.5 9 0 9.4 0 10C0 10.6 0.4 11 1 11H4ZM1.7 6.3L4.3 7.8C4.5 7.9 4.7 8 4.8 8C5.1 8 5.5 7.8 5.7 7.5C6 7 5.8 6.4 5.3 6.1L2.7 4.6C2.3 4.3 1.7 4.5 1.4 4.9C1.1 5.4 1.3 6 1.7 6.3Z" fill="#F79E1B"/>
</svg>
