<svg width="21" height="14" viewBox="0 0 21 14" fill="none" xmlns="http://www.w3.org/2000/svg">
    <path d="M13.4307 1.93799H7.82001V12.062H13.4307V1.93799Z" fill="#FF5F00"/>
    <path d="M8.17622 7.00009C8.17533 6.02507 8.39537 5.06263 8.81968 4.18563C9.244 3.30863 9.86145 2.54006 10.6253 1.93809C9.67938 1.19151 8.54334 0.727223 7.34703 0.598296C6.15073 0.469369 4.94243 0.680999 3.86025 1.20901C2.77807 1.73701 1.86567 2.56009 1.22733 3.58416C0.588997 4.60823 0.250488 5.79197 0.250488 7.00009C0.250488 8.2082 0.588997 9.39194 1.22733 10.416C1.86567 11.4401 2.77807 12.2632 3.86025 12.7912C4.94243 13.3192 6.15073 13.5308 7.34703 13.4019C8.54334 13.2729 9.67938 12.8087 10.6253 12.0621C9.86146 11.4601 9.24401 10.6915 8.81969 9.81453C8.39538 8.93753 8.17534 7.9751 8.17622 7.00009Z" fill="#EB001B"/>
    <path d="M21 7.00008C21 8.20818 20.6616 9.39192 20.0233 10.416C19.385 11.4401 18.4726 12.2631 17.3904 12.7911C16.3083 13.3192 15.1 13.5308 13.9037 13.4019C12.7074 13.2729 11.5714 12.8087 10.6255 12.0621C11.3887 11.4595 12.0057 10.6908 12.4299 9.81394C12.8541 8.93708 13.0746 7.97494 13.0746 7.00008C13.0746 6.02523 12.8541 5.06309 12.4299 4.18623C12.0057 3.30936 11.3887 2.54067 10.6255 1.93809C11.5714 1.19151 12.7074 0.72722 13.9037 0.598294C15.1 0.469368 16.3083 0.681008 17.3904 1.20902C18.4726 1.73703 19.385 2.56011 20.0233 3.58418C20.6616 4.60825 21 5.79199 21 7.00008Z" fill="#F79E1B"/>
    <path fill-rule="evenodd" clip-rule="evenodd" d="M10.6254 1.93799H10.6253L10.6253 1.93801C9.86145 2.53997 9.24399 3.30855 8.81968 4.18555C8.39536 5.06255 8.17532 6.02499 8.17621 7C8.17533 7.97501 8.39538 8.93745 8.81969 9.81445C9.244 10.6914 9.86144 11.46 10.6253 12.062H10.6254C11.3886 11.4594 12.0056 10.6907 12.4298 9.81386C12.8541 8.937 13.0745 7.97486 13.0745 7C13.0745 6.02514 12.8541 5.06301 12.4298 4.18614C12.0056 3.30928 11.3886 2.54058 10.6254 1.93801C10.6254 1.938 10.6254 1.93799 10.6254 1.93799Z" fill="#FF5F00"/>
</svg>
