<svg width="110" height="21" viewBox="0 0 110 21" fill="none" xmlns="http://www.w3.org/2000/svg">
    <path d="M102.031 16.7652L97.9381 7.27753H100.679L103.474 14.0819L106.705 7.27753H109.4L103.029 20.346H100.289L102.031 16.7652ZM92.0647 14.8008C92.3066 14.7452 92.54 14.6575 92.759 14.5398C92.9706 14.4262 93.1672 14.2862 93.3443 14.1231C93.5212 13.9597 93.674 13.7716 93.7981 13.5645C93.9281 13.3469 94.0288 13.1129 94.0976 12.8685C94.172 12.6018 94.2086 12.3259 94.2064 12.0488C94.209 11.7688 94.1723 11.4898 94.0976 11.22C94.0288 10.9756 93.9281 10.7416 93.7981 10.524C93.6732 10.3161 93.5205 10.1266 93.3443 9.96082C93.1694 9.79635 92.9723 9.65762 92.759 9.5487C92.5385 9.43674 92.3054 9.35218 92.0647 9.29687C91.8117 9.23834 91.5529 9.20915 91.2934 9.20987C91.0353 9.20897 90.7779 9.23816 90.5265 9.29687C90.2887 9.35221 90.0586 9.43678 89.8413 9.5487C89.6288 9.65908 89.432 9.79768 89.256 9.96082C89.0775 10.1257 88.9232 10.3153 88.7977 10.524C88.6679 10.7411 88.5686 10.9754 88.5028 11.22C88.431 11.4903 88.3959 11.7691 88.3984 12.0488C88.3963 12.3256 88.4314 12.6013 88.5028 12.8685C88.5686 13.1132 88.6679 13.3474 88.7977 13.5645C88.9225 13.7724 89.0769 13.9606 89.256 14.1231C89.4341 14.2848 89.6306 14.4247 89.8413 14.5398C90.0571 14.6574 90.2875 14.7452 90.5265 14.8008C90.7779 14.8596 91.0353 14.8888 91.2934 14.8878C91.5529 14.8886 91.8117 14.8595 92.0647 14.8008ZM89.3013 16.9255C88.8812 16.8176 88.4769 16.6544 88.0989 16.4401C87.3627 16.0223 86.755 15.4075 86.3429 14.6635C86.1305 14.2788 85.9688 13.8678 85.8619 13.4409C85.638 12.5235 85.638 11.5651 85.8619 10.6477C85.9683 10.2221 86.1301 9.81252 86.3429 9.42968C86.7569 8.68828 87.3642 8.07543 88.0989 7.65761C88.4769 7.44336 88.8812 7.28017 89.3013 7.17224C89.7507 7.05723 90.2127 7.0003 90.6762 7.00281C90.9265 7.00224 91.1765 7.01753 91.4249 7.0486C91.6534 7.07714 91.8794 7.12306 92.101 7.18597C92.3064 7.24481 92.508 7.31669 92.7045 7.40118C92.8884 7.48014 93.0659 7.57353 93.2354 7.6805C93.3947 7.7812 93.5437 7.89778 93.68 8.0285C93.8076 8.15066 93.9259 8.2823 94.034 8.4223V7.27753H96.6385V16.8202H94.034V15.6754C93.8674 15.8863 93.677 16.0768 93.4668 16.2432C93.2343 16.4274 92.9797 16.5813 92.709 16.7011C92.408 16.8345 92.0929 16.9328 91.7697 16.9942C91.4093 17.063 91.0431 17.0968 90.6762 17.0949C90.2126 17.0974 89.7507 17.0405 89.3013 16.9255ZM79.8458 9.69525C80.2189 9.70214 80.5912 9.65903 80.953 9.56703C81.235 9.49514 81.4982 9.36235 81.7244 9.17781C81.9285 9.00597 82.0849 8.78347 82.1781 8.53218C82.2797 8.24745 82.3289 7.94641 82.3233 7.64385C82.3291 7.34277 82.2799 7.04318 82.1781 6.76011C82.0846 6.51154 81.9282 6.29207 81.7244 6.12362C81.4971 5.94184 81.2341 5.81074 80.953 5.73899C80.5911 5.64711 80.2189 5.60399 79.8458 5.61078H77.2866V9.69524L79.8458 9.69525ZM74.5914 3.35791H80.0999C80.9651 3.35791 81.7153 3.46475 82.3505 3.67844C82.9857 3.89213 83.5091 4.18824 83.9205 4.56677C84.3297 4.94209 84.6453 5.40962 84.8416 5.93131C85.0477 6.48128 85.1508 7.06507 85.1457 7.65301C85.1522 8.23958 85.049 8.82213 84.8416 9.37013C84.6421 9.88749 84.3269 10.3513 83.9205 10.7255C83.5091 11.1072 82.9857 11.4048 82.3505 11.6184C81.7153 11.8323 80.9651 11.9391 80.0999 11.939H77.2866V16.8202H74.5914V3.35791ZM63.0176 7.27753H65.604V8.42228C65.7636 8.20009 65.9529 8.0013 66.1666 7.83159C66.3927 7.65253 66.6396 7.50185 66.9017 7.38285C67.1905 7.25252 67.4936 7.15722 67.8047 7.09895C68.1502 7.03338 68.5012 7.00118 68.8528 7.00279C69.4004 6.99488 69.9448 7.08799 70.4591 7.27753C70.9174 7.4479 71.3327 7.71841 71.6752 8.0697C72.0194 8.43375 72.2797 8.86997 72.4375 9.34724C72.6196 9.89604 72.7086 10.4719 72.7007 11.0506V16.8202H70.1143V11.7283C70.1205 11.3561 70.0684 10.9852 69.96 10.6294C69.8703 10.3356 69.7203 10.0641 69.5199 9.83261C69.3272 9.61756 69.0859 9.45263 68.8165 9.35182C68.5112 9.24037 68.1883 9.18606 67.8637 9.19155C67.5376 9.18635 67.2132 9.24064 66.9062 9.35182C66.6351 9.45177 66.3922 9.61678 66.1984 9.83261C65.9979 10.0641 65.848 10.3356 65.7583 10.6294C65.6498 10.9852 65.5978 11.3561 65.604 11.7283V16.8202H63.0176V7.27753ZM56.653 14.7734C56.8999 14.7131 57.139 14.624 57.3654 14.5077C57.5808 14.3966 57.7782 14.253 57.9508 14.0819C58.1216 13.913 58.2696 13.7221 58.3909 13.5141C58.5145 13.2999 58.6063 13.0684 58.6632 12.8273C58.7249 12.5663 58.7553 12.2988 58.7539 12.0305C58.7555 11.7637 58.725 11.4977 58.6632 11.2383C58.5487 10.7603 58.3016 10.3251 57.9508 9.9837C57.7759 9.81406 57.579 9.66926 57.3654 9.55327C57.1409 9.43171 56.9013 9.34086 56.653 9.28311C56.3837 9.2207 56.1081 9.18997 55.8317 9.19153C55.5584 9.19029 55.2858 9.22102 55.0195 9.28311C54.7725 9.34031 54.5344 9.4312 54.3117 9.55327C54.1 9.67005 53.9046 9.81481 53.7309 9.9837C53.5597 10.15 53.4144 10.3414 53.2998 10.5515C53.1827 10.7673 53.0913 10.9963 53.0275 11.2338C52.959 11.4936 52.9254 11.7616 52.9277 12.0305C52.9262 12.2994 52.9597 12.5673 53.0275 12.8273C53.0896 13.0668 53.1811 13.2975 53.2998 13.5141C53.4158 13.7232 53.561 13.9145 53.7309 14.0819C53.9023 14.2523 54.0981 14.3958 54.3117 14.5078C54.5362 14.6245 54.7739 14.7137 55.0195 14.7734C55.2854 14.8385 55.5581 14.8708 55.8317 14.8695C56.1083 14.8712 56.3841 14.8389 56.653 14.7734V14.7734ZM54.3071 16.9209C53.8404 16.8113 53.3881 16.6469 52.9594 16.4309C52.5562 16.2281 52.1822 15.9708 51.8478 15.6662C51.5236 15.3703 51.2425 15.0296 51.0129 14.6543C50.78 14.2722 50.6013 13.8592 50.482 13.4271C50.2339 12.5129 50.2339 11.5482 50.482 10.6339C50.6008 10.2032 50.7796 9.79154 51.0129 9.41135C51.2442 9.03724 51.5251 8.69677 51.8478 8.39942C52.1813 8.0924 52.5555 7.83352 52.9594 7.63014C53.3882 7.41431 53.8405 7.24988 54.3071 7.14018C55.3166 6.90818 56.3649 6.90818 57.3745 7.14018C57.8385 7.24889 58.2879 7.41339 58.713 7.63014C59.1153 7.83654 59.489 8.09516 59.8247 8.39942C60.1524 8.69569 60.4379 9.03622 60.6733 9.41135C60.9092 9.79073 61.0895 10.2025 61.2087 10.6339C61.4567 11.5482 61.4567 12.5129 61.2087 13.4271C61.089 13.8598 60.9087 14.273 60.6733 14.6543C60.4396 15.0307 60.1539 15.3714 59.8247 15.6662C59.4881 15.9681 59.1145 16.2251 58.713 16.4309C58.2893 16.6473 57.8414 16.8118 57.379 16.9209C56.3679 17.1529 55.3182 17.1529 54.3071 16.9209ZM44.2146 14.7734C44.4615 14.7131 44.7006 14.624 44.927 14.5077C45.1424 14.3966 45.3398 14.253 45.5123 14.0819C45.6832 13.913 45.8312 13.7221 45.9525 13.5141C46.0762 13.2999 46.1679 13.0685 46.2247 12.8273C46.2864 12.5663 46.3169 12.2988 46.3155 12.0305C46.3171 11.7637 46.2866 11.4977 46.2247 11.2383C46.1103 10.7603 45.8632 10.3251 45.5123 9.9837C45.3375 9.81406 45.1406 9.66926 44.927 9.55327C44.7025 9.43169 44.4629 9.34084 44.2146 9.28311C43.9453 9.2207 43.6697 9.18997 43.3933 9.19153C43.12 9.1903 42.8474 9.22103 42.5811 9.28311C42.3341 9.34031 42.0959 9.4312 41.8732 9.55327C41.6616 9.67008 41.4662 9.81483 41.2924 9.9837C41.1213 10.15 40.9759 10.3414 40.8614 10.5515C40.7444 10.7673 40.653 10.9963 40.5891 11.2338C40.5206 11.4936 40.487 11.7616 40.4893 12.0305C40.4877 12.2994 40.5213 12.5672 40.5891 12.8273C40.6513 13.0667 40.7428 13.2974 40.8614 13.5141C40.9774 13.7232 41.1225 13.9144 41.2924 14.0819C41.4639 14.2522 41.6597 14.3958 41.8732 14.5077C42.0978 14.6245 42.3355 14.7137 42.5811 14.7734C42.847 14.8385 43.1197 14.8708 43.3933 14.8695C43.6699 14.8711 43.9457 14.8389 44.2146 14.7734ZM41.8687 16.9209C41.402 16.8113 40.9497 16.6469 40.5211 16.431C40.1179 16.2281 39.7439 15.9709 39.4094 15.6663C39.0852 15.3703 38.8042 15.0296 38.5744 14.6544C38.3416 14.2723 38.1629 13.8592 38.0436 13.4272C37.7955 12.5129 37.7955 11.5482 38.0436 10.634C38.1624 10.2032 38.3412 9.79158 38.5744 9.4114C38.8058 9.03731 39.0867 8.69685 39.4094 8.39946C39.743 8.09248 40.1171 7.83359 40.5211 7.63018C40.9498 7.41436 41.4021 7.24992 41.8687 7.14023C42.8782 6.90823 43.9265 6.90823 44.9361 7.14023C45.4001 7.24892 45.8495 7.41341 46.2746 7.63018C46.6769 7.83656 47.0506 8.09518 47.3863 8.39946C47.714 8.69571 47.9996 9.03624 48.2349 9.4114C48.4708 9.79075 48.6511 10.2025 48.7703 10.634C49.0183 11.5482 49.0183 12.5129 48.7703 13.4272C48.6506 13.8599 48.4703 14.2731 48.2349 14.6544C48.0012 15.0307 47.7155 15.3715 47.3863 15.6663C47.0497 15.9681 46.6761 16.2251 46.2746 16.431C45.8509 16.6473 45.403 16.8118 44.9406 16.9209C43.9295 17.1529 42.8798 17.1529 41.8687 16.9209ZM21.4551 3.35791H24.1776L28.8332 10.5378L33.5068 3.35791H36.2294V16.8202H33.534V7.5889L29.6681 13.5416H28.0164L24.1504 7.5889V16.8202H21.4551V3.35791Z" fill="black"/>
    <path d="M15.2386 5.76774C15.7771 5.76774 16.3034 5.60661 16.7512 5.30473C17.1989 5.00284 17.5478 4.57375 17.7539 4.07173C17.9599 3.56971 18.0139 3.0173 17.9088 2.48436C17.8038 1.95141 17.5445 1.46187 17.1637 1.07764C16.783 0.693414 16.2979 0.43175 15.7697 0.325741C15.2416 0.219732 14.6942 0.27414 14.1967 0.482084C13.6993 0.690028 13.2741 1.04217 12.9749 1.49398C12.6758 1.94578 12.5161 2.47696 12.5161 3.02035C12.5161 3.38115 12.5865 3.73842 12.7233 4.07176C12.8601 4.4051 13.0606 4.70798 13.3134 4.9631C13.5663 5.21823 13.8664 5.4206 14.1967 5.55866C14.527 5.69672 14.8811 5.76777 15.2386 5.76774ZM6.89067 18.1413C5.57817 18.1413 4.29513 17.7486 3.20382 17.0127C2.11251 16.2769 1.26194 15.231 0.759666 14.0073C0.257391 12.7836 0.125974 11.4371 0.382032 10.1381C0.638091 8.83901 1.27012 7.64575 2.19821 6.70919C3.12629 5.77263 4.30874 5.13482 5.59603 4.87643C6.88332 4.61803 8.21763 4.75066 9.43022 5.25752C10.6428 5.76439 11.6792 6.62274 12.4084 7.72402C13.1376 8.8253 13.5268 10.1201 13.5268 11.4446C13.5268 12.324 13.3552 13.1948 13.0217 14.0073C12.6882 14.8198 12.1994 15.5581 11.5832 16.1799C10.967 16.8018 10.2354 17.2951 9.43024 17.6316C8.6251 17.9682 7.76215 18.1413 6.89067 18.1413Z" fill="#7D00FF"/>
</svg>
