<svg width="178" height="178" viewBox="0 0 178 178" fill="none" xmlns="http://www.w3.org/2000/svg">
    <path d="M5.40203 0.625H0.625V5.40203H5.40203V0.625Z" fill="black"/>
    <path d="M10.1791 0.625H5.40203V5.40203H10.1791V0.625Z" fill="black"/>
    <path d="M14.9561 0.625H10.1791V5.40203H14.9561V0.625Z" fill="black"/>
    <path d="M19.7331 0.625H14.9561V5.40203H19.7331V0.625Z" fill="black"/>
    <path d="M24.5101 0.625H19.7331V5.40203H24.5101V0.625Z" fill="black"/>
    <path d="M29.2872 0.625H24.5101V5.40203H29.2872V0.625Z" fill="black"/>
    <path d="M34.0642 0.625H29.2872V5.40203H34.0642V0.625Z" fill="black"/>
    <path d="M43.6182 0.625H38.8412V5.40203H43.6182V0.625Z" fill="black"/>
    <path d="M53.1723 0.625H48.3953V5.40203H53.1723V0.625Z" fill="black"/>
    <path d="M62.7264 0.625H57.9493V5.40203H62.7264V0.625Z" fill="black"/>
    <path d="M91.3885 0.625H86.6115V5.40203H91.3885V0.625Z" fill="black"/>
    <path d="M96.1655 0.625H91.3885V5.40203H96.1655V0.625Z" fill="black"/>
    <path d="M100.943 0.625H96.1655V5.40203H100.943V0.625Z" fill="black"/>
    <path d="M129.605 0.625H124.828V5.40203H129.605V0.625Z" fill="black"/>
    <path d="M139.159 0.625H134.382V5.40203H139.159V0.625Z" fill="black"/>
    <path d="M148.713 0.625H143.936V5.40203H148.713V0.625Z" fill="black"/>
    <path d="M153.49 0.625H148.713V5.40203H153.49V0.625Z" fill="black"/>
    <path d="M158.267 0.625H153.49V5.40203H158.267V0.625Z" fill="black"/>
    <path d="M163.044 0.625H158.267V5.40203H163.044V0.625Z" fill="black"/>
    <path d="M167.821 0.625H163.044V5.40203H167.821V0.625Z" fill="black"/>
    <path d="M172.598 0.625H167.821V5.40203H172.598V0.625Z" fill="black"/>
    <path d="M177.375 0.625H172.598V5.40203H177.375V0.625Z" fill="black"/>
    <path d="M5.40203 5.40203H0.625V10.1791H5.40203V5.40203Z" fill="black"/>
    <path d="M34.0642 5.40203H29.2872V10.1791H34.0642V5.40203Z" fill="black"/>
    <path d="M57.9493 5.40203H53.1723V10.1791H57.9493L57.9493 5.40203Z" fill="black"/>
    <path d="M62.7264 5.40203H57.9493L57.9493 10.1791H62.7264V5.40203Z" fill="black"/>
    <path d="M77.0574 5.40203H72.2804V10.1791H77.0574V5.40203Z" fill="black"/>
    <path d="M81.8345 5.40203H77.0574V10.1791H81.8345V5.40203Z" fill="black"/>
    <path d="M86.6115 5.40203H81.8345V10.1791H86.6115L86.6115 5.40203Z" fill="black"/>
    <path d="M96.1655 5.40203H91.3885V10.1791H96.1655V5.40203Z" fill="black"/>
    <path d="M100.943 5.40203H96.1655V10.1791H100.943V5.40203Z" fill="black"/>
    <path d="M105.72 5.40203H100.943V10.1791H105.72V5.40203Z" fill="black"/>
    <path d="M120.051 5.40203H115.274V10.1791H120.051V5.40203Z" fill="black"/>
    <path d="M124.828 5.40203H120.051V10.1791H124.828V5.40203Z" fill="black"/>
    <path d="M129.605 5.40203H124.828V10.1791H129.605V5.40203Z" fill="black"/>
    <path d="M139.159 5.40203H134.382V10.1791H139.159V5.40203Z" fill="black"/>
    <path d="M148.713 5.40203H143.936V10.1791H148.713V5.40203Z" fill="black"/>
    <path d="M177.375 5.40203H172.598V10.1791H177.375V5.40203Z" fill="black"/>
    <path d="M5.40203 10.1791H0.625V14.9561H5.40203V10.1791Z" fill="black"/>
    <path d="M14.9561 10.1791H10.1791V14.9561H14.9561V10.1791Z" fill="black"/>
    <path d="M19.7331 10.1791H14.9561V14.9561H19.7331V10.1791Z" fill="black"/>
    <path d="M24.5101 10.1791H19.7331V14.9561H24.5101V10.1791Z" fill="black"/>
    <path d="M34.0642 10.1791H29.2872V14.9561H34.0642V10.1791Z" fill="black"/>
    <path d="M43.6182 10.1791H38.8412V14.9561H43.6182V10.1791Z" fill="black"/>
    <path d="M53.1723 10.1791H48.3953V14.9561H53.1723V10.1791Z" fill="black"/>
    <path d="M67.5034 10.1791H62.7264L62.7263 14.9561H67.5034V10.1791Z" fill="black"/>
    <path d="M86.6115 10.1791H81.8345L81.8345 14.9561H86.6115V10.1791Z" fill="black"/>
    <path d="M96.1655 10.1791H91.3885V14.9561H96.1655V10.1791Z" fill="black"/>
    <path d="M100.943 10.1791H96.1655V14.9561H100.943V10.1791Z" fill="black"/>
    <path d="M105.72 10.1791H100.943V14.9561H105.72V10.1791Z" fill="black"/>
    <path d="M139.159 10.1791H134.382V14.9561H139.159V10.1791Z" fill="black"/>
    <path d="M148.713 10.1791H143.936V14.9561H148.713V10.1791Z" fill="black"/>
    <path d="M158.267 10.1791H153.49V14.9561H158.267V10.1791Z" fill="black"/>
    <path d="M163.044 10.1791H158.267V14.9561H163.044V10.1791Z" fill="black"/>
    <path d="M167.821 10.1791H163.044V14.9561H167.821V10.1791Z" fill="black"/>
    <path d="M177.375 10.1791H172.598V14.9561H177.375V10.1791Z" fill="black"/>
    <path d="M5.40203 14.9561H0.625V19.7331H5.40203V14.9561Z" fill="black"/>
    <path d="M14.9561 14.9561H10.1791V19.7331H14.9561V14.9561Z" fill="black"/>
    <path d="M19.7331 14.9561H14.9561V19.7331H19.7331V14.9561Z" fill="black"/>
    <path d="M24.5101 14.9561H19.7331V19.7331H24.5101V14.9561Z" fill="black"/>
    <path d="M34.0642 14.9561H29.2872V19.7331H34.0642V14.9561Z" fill="black"/>
    <path d="M48.3953 14.9561H43.6182V19.7331H48.3953V14.9561Z" fill="black"/>
    <path d="M81.8345 14.9561H77.0574V19.7331H81.8345L81.8345 14.9561Z" fill="black"/>
    <path d="M86.6115 14.9561H81.8345L81.8345 19.7331H86.6115V14.9561Z" fill="black"/>
    <path d="M100.943 14.9561H96.1655V19.7331H100.943V14.9561Z" fill="black"/>
    <path d="M110.497 14.9561H105.72V19.7331H110.497V14.9561Z" fill="black"/>
    <path d="M115.274 14.9561H110.497V19.7331H115.274V14.9561Z" fill="black"/>
    <path d="M124.828 14.9561H120.051V19.7331H124.828V14.9561Z" fill="black"/>
    <path d="M134.382 14.9561H129.605V19.7331H134.382V14.9561Z" fill="black"/>
    <path d="M148.713 14.9561H143.936V19.7331H148.713V14.9561Z" fill="black"/>
    <path d="M158.267 14.9561H153.49V19.7331H158.267V14.9561Z" fill="black"/>
    <path d="M163.044 14.9561H158.267V19.7331H163.044V14.9561Z" fill="black"/>
    <path d="M167.821 14.9561H163.044V19.7331H167.821V14.9561Z" fill="black"/>
    <path d="M177.375 14.9561H172.598V19.7331H177.375V14.9561Z" fill="black"/>
    <path d="M5.40203 19.7331H0.625V24.5101H5.40203V19.7331Z" fill="black"/>
    <path d="M14.9561 19.7331H10.1791V24.5101H14.9561V19.7331Z" fill="black"/>
    <path d="M19.7331 19.7331H14.9561V24.5101H19.7331V19.7331Z" fill="black"/>
    <path d="M24.5101 19.7331H19.7331V24.5101H24.5101V19.7331Z" fill="black"/>
    <path d="M34.0642 19.7331H29.2872V24.5101H34.0642V19.7331Z" fill="black"/>
    <path d="M48.3953 19.7331H43.6182V24.5101H48.3953V19.7331Z" fill="black"/>
    <path d="M62.7264 19.7331H57.9493V24.5101H62.7264V19.7331Z" fill="black"/>
    <path d="M86.6115 19.7331H81.8345L81.8345 24.5101H86.6115V19.7331Z" fill="black"/>
    <path d="M91.3885 19.7331H86.6115V24.5101H91.3885V19.7331Z" fill="black"/>
    <path d="M100.943 19.7331H96.1655V24.5101H100.943V19.7331Z" fill="black"/>
    <path d="M110.497 19.7331H105.72V24.5101H110.497V19.7331Z" fill="black"/>
    <path d="M124.828 19.7331H120.051V24.5101H124.828V19.7331Z" fill="black"/>
    <path d="M129.605 19.7331H124.828V24.5101H129.605V19.7331Z" fill="black"/>
    <path d="M148.713 19.7331H143.936V24.5101H148.713V19.7331Z" fill="black"/>
    <path d="M158.267 19.7331H153.49V24.5101H158.267V19.7331Z" fill="black"/>
    <path d="M163.044 19.7331H158.267V24.5101H163.044V19.7331Z" fill="black"/>
    <path d="M167.821 19.7331H163.044V24.5101H167.821V19.7331Z" fill="black"/>
    <path d="M177.375 19.7331H172.598V24.5101H177.375V19.7331Z" fill="black"/>
    <path d="M5.40203 24.5101H0.625V29.2872H5.40203V24.5101Z" fill="black"/>
    <path d="M34.0642 24.5101H29.2872V29.2872H34.0642V24.5101Z" fill="black"/>
    <path d="M48.3953 24.5101H43.6182V29.2872H48.3953V24.5101Z" fill="black"/>
    <path d="M53.1723 24.5101H48.3953V29.2872H53.1723V24.5101Z" fill="black"/>
    <path d="M57.9493 24.5101H53.1723V29.2872H57.9493L57.9493 24.5101Z" fill="black"/>
    <path d="M62.7264 24.5101H57.9493L57.9493 29.2872H62.7264V24.5101Z" fill="black"/>
    <path d="M67.5034 24.5101H62.7264V29.2872H67.5034V24.5101Z" fill="black"/>
    <path d="M72.2804 24.5101H67.5034V29.2872H72.2804V24.5101Z" fill="black"/>
    <path d="M81.8345 24.5101H77.0574V29.2872H81.8345L81.8345 24.5101Z" fill="black"/>
    <path d="M86.6115 24.5101H81.8345L81.8345 29.2872H86.6115V24.5101Z" fill="black"/>
    <path d="M96.1655 24.5101H91.3885V29.2872H96.1655V24.5101Z" fill="black"/>
    <path d="M100.943 24.5101H96.1655V29.2872H100.943V24.5101Z" fill="black"/>
    <path d="M105.72 24.5101H100.943V29.2872H105.72V24.5101Z" fill="black"/>
    <path d="M110.497 24.5101H105.72V29.2872H110.497V24.5101Z" fill="black"/>
    <path d="M129.605 24.5101H124.828V29.2872H129.605V24.5101Z" fill="black"/>
    <path d="M139.159 24.5101H134.382V29.2872H139.159V24.5101Z" fill="black"/>
    <path d="M148.713 24.5101H143.936V29.2872H148.713V24.5101Z" fill="black"/>
    <path d="M177.375 24.5101H172.598V29.2872H177.375V24.5101Z" fill="black"/>
    <path d="M5.40203 29.2872H0.625V34.0642H5.40203V29.2872Z" fill="black"/>
    <path d="M10.1791 29.2872H5.40203V34.0642H10.1791V29.2872Z" fill="black"/>
    <path d="M14.9561 29.2872H10.1791V34.0642H14.9561V29.2872Z" fill="black"/>
    <path d="M19.7331 29.2872H14.9561V34.0642H19.7331V29.2872Z" fill="black"/>
    <path d="M24.5101 29.2872H19.7331V34.0642H24.5101V29.2872Z" fill="black"/>
    <path d="M29.2872 29.2872H24.5101V34.0642H29.2872V29.2872Z" fill="black"/>
    <path d="M34.0642 29.2872H29.2872V34.0642H34.0642V29.2872Z" fill="black"/>
    <path d="M43.6182 29.2872H38.8412V34.0642H43.6182V29.2872Z" fill="black"/>
    <path d="M53.1723 29.2872H48.3953V34.0642H53.1723V29.2872Z" fill="black"/>
    <path d="M62.7264 29.2872H57.9493L57.9493 34.0642H62.7264V29.2872Z" fill="black"/>
    <path d="M72.2804 29.2872H67.5034V34.0642H72.2804V29.2872Z" fill="black"/>
    <path d="M81.8345 29.2872H77.0574V34.0642H81.8345V29.2872Z" fill="black"/>
    <path d="M91.3885 29.2872H86.6115L86.6115 34.0642H91.3885V29.2872Z" fill="black"/>
    <path d="M100.943 29.2872H96.1655V34.0642H100.943V29.2872Z" fill="black"/>
    <path d="M110.497 29.2872H105.72V34.0642H110.497V29.2872Z" fill="black"/>
    <path d="M120.051 29.2872H115.274V34.0642H120.051V29.2872Z" fill="black"/>
    <path d="M129.605 29.2872H124.828V34.0642H129.605V29.2872Z" fill="black"/>
    <path d="M139.159 29.2872H134.382V34.0642H139.159V29.2872Z" fill="black"/>
    <path d="M148.713 29.2872H143.936V34.0642H148.713V29.2872Z" fill="black"/>
    <path d="M153.49 29.2872H148.713V34.0642H153.49V29.2872Z" fill="black"/>
    <path d="M158.267 29.2872H153.49V34.0642H158.267V29.2872Z" fill="black"/>
    <path d="M163.044 29.2872H158.267V34.0642H163.044V29.2872Z" fill="black"/>
    <path d="M167.821 29.2872H163.044V34.0642H167.821V29.2872Z" fill="black"/>
    <path d="M172.598 29.2872H167.821V34.0642H172.598V29.2872Z" fill="black"/>
    <path d="M177.375 29.2872H172.598V34.0642H177.375V29.2872Z" fill="black"/>
    <path d="M43.6182 34.0642H38.8412V38.8412H43.6182V34.0642Z" fill="black"/>
    <path d="M53.1723 34.0642H48.3953V38.8412H53.1723V34.0642Z" fill="black"/>
    <path d="M62.7264 34.0642H57.9493V38.8412H62.7264V34.0642Z" fill="black"/>
    <path d="M72.2804 34.0642H67.5034V38.8412H72.2804V34.0642Z" fill="black"/>
    <path d="M77.0574 34.0642H72.2804V38.8412H77.0574L77.0574 34.0642Z" fill="black"/>
    <path d="M81.8345 34.0642H77.0574L77.0574 38.8412H81.8345V34.0642Z" fill="black"/>
    <path d="M86.6115 34.0642H81.8345V38.8412H86.6115L86.6115 34.0642Z" fill="black"/>
    <path d="M100.943 34.0642H96.1655V38.8412H100.943V34.0642Z" fill="black"/>
    <path d="M110.497 34.0642H105.72V38.8412H110.497V34.0642Z" fill="black"/>
    <path d="M115.274 34.0642H110.497V38.8412H115.274V34.0642Z" fill="black"/>
    <path d="M120.051 34.0642H115.274V38.8412H120.051V34.0642Z" fill="black"/>
    <path d="M139.159 34.0642H134.382V38.8412H139.159V34.0642Z" fill="black"/>
    <path d="M5.40203 38.8412H0.625V43.6182H5.40203V38.8412Z" fill="black"/>
    <path d="M14.9561 38.8412H10.1791V43.6182H14.9561V38.8412Z" fill="black"/>
    <path d="M29.2872 38.8412H24.5101V43.6182H29.2872V38.8412Z" fill="black"/>
    <path d="M34.0642 38.8412H29.2872V43.6182H34.0642V38.8412Z" fill="black"/>
    <path d="M57.9493 38.8412H53.1723V43.6182H57.9493L57.9493 38.8412Z" fill="black"/>
    <path d="M62.7264 38.8412H57.9493L57.9493 43.6182H62.7264V38.8412Z" fill="black"/>
    <path d="M67.5034 38.8412H62.7264V43.6182H67.5034V38.8412Z" fill="black"/>
    <path d="M77.0574 38.8412H72.2804L72.2804 43.6182H77.0574V38.8412Z" fill="black"/>
    <path d="M86.6115 38.8412H81.8345L81.8345 43.6182H86.6115V38.8412Z" fill="black"/>
    <path d="M91.3885 38.8412H86.6115V43.6182H91.3885V38.8412Z" fill="black"/>
    <path d="M96.1655 38.8412H91.3885V43.6182H96.1655V38.8412Z" fill="black"/>
    <path d="M100.943 38.8412H96.1655V43.6182H100.943V38.8412Z" fill="black"/>
    <path d="M115.274 38.8412H110.497V43.6182H115.274V38.8412Z" fill="black"/>
    <path d="M124.828 38.8412H120.051V43.6182H124.828V38.8412Z" fill="black"/>
    <path d="M129.605 38.8412H124.828V43.6182H129.605V38.8412Z" fill="black"/>
    <path d="M143.936 38.8412H139.159V43.6182H143.936V38.8412Z" fill="black"/>
    <path d="M148.713 38.8412H143.936V43.6182H148.713V38.8412Z" fill="black"/>
    <path d="M167.821 38.8412H163.044V43.6182H167.821V38.8412Z" fill="black"/>
    <path d="M177.375 38.8412H172.598V43.6182H177.375V38.8412Z" fill="black"/>
    <path d="M5.40203 43.6182H0.625V48.3953H5.40203V43.6182Z" fill="black"/>
    <path d="M19.7331 43.6182H14.9561V48.3953H19.7331V43.6182Z" fill="black"/>
    <path d="M24.5101 43.6182H19.7331V48.3953H24.5101V43.6182Z" fill="black"/>
    <path d="M29.2872 43.6182H24.5101V48.3953H29.2872V43.6182Z" fill="black"/>
    <path d="M38.8412 43.6182H34.0642V48.3953H38.8412V43.6182Z" fill="black"/>
    <path d="M48.3953 43.6182H43.6182V48.3953H48.3953V43.6182Z" fill="black"/>
    <path d="M72.2804 43.6182H67.5034V48.3953H72.2804L72.2804 43.6182Z" fill="black"/>
    <path d="M86.6115 43.6182H81.8345V48.3953H86.6115V43.6182Z" fill="black"/>
    <path d="M96.1655 43.6182H91.3885V48.3953H96.1655V43.6182Z" fill="black"/>
    <path d="M100.943 43.6182H96.1655V48.3953H100.943V43.6182Z" fill="black"/>
    <path d="M105.72 43.6182H100.943V48.3953H105.72V43.6182Z" fill="black"/>
    <path d="M110.497 43.6182H105.72V48.3953H110.497V43.6182Z" fill="black"/>
    <path d="M115.274 43.6182H110.497V48.3953H115.274V43.6182Z" fill="black"/>
    <path d="M143.936 43.6182H139.159V48.3953H143.936V43.6182Z" fill="black"/>
    <path d="M148.713 43.6182H143.936V48.3953H148.713V43.6182Z" fill="black"/>
    <path d="M153.49 43.6182H148.713V48.3953H153.49V43.6182Z" fill="black"/>
    <path d="M158.267 43.6182H153.49V48.3953H158.267V43.6182Z" fill="black"/>
    <path d="M163.044 43.6182H158.267V48.3953H163.044V43.6182Z" fill="black"/>
    <path d="M167.821 43.6182H163.044V48.3953H167.821V43.6182Z" fill="black"/>
    <path d="M172.598 43.6182H167.821V48.3953H172.598V43.6182Z" fill="black"/>
    <path d="M5.40203 48.3953H0.625V53.1723H5.40203V48.3953Z" fill="black"/>
    <path d="M10.1791 48.3953H5.40203V53.1723H10.1791V48.3953Z" fill="black"/>
    <path d="M14.9561 48.3953H10.1791V53.1723H14.9561V48.3953Z" fill="black"/>
    <path d="M19.7331 48.3953H14.9561V53.1723H19.7331V48.3953Z" fill="black"/>
    <path d="M34.0642 48.3953H29.2872V53.1723H34.0642V48.3953Z" fill="black"/>
    <path d="M43.6182 48.3953H38.8412V53.1723H43.6182V48.3953Z" fill="black"/>
    <path d="M48.3953 48.3953H43.6182V53.1723H48.3953V48.3953Z" fill="black"/>
    <path d="M53.1723 48.3953H48.3953V53.1723H53.1723V48.3953Z" fill="black"/>
    <path d="M67.5034 48.3953H62.7263V53.1723H67.5034V48.3953Z" fill="black"/>
    <path d="M77.0574 48.3953H72.2804L72.2804 53.1723H77.0574V48.3953Z" fill="black"/>
    <path d="M86.6115 48.3953H81.8345V53.1723H86.6115V48.3953Z" fill="black"/>
    <path d="M96.1655 48.3953H91.3885V53.1723H96.1655V48.3953Z" fill="black"/>
    <path d="M100.943 48.3953H96.1655V53.1723H100.943V48.3953Z" fill="black"/>
    <path d="M105.72 48.3953H100.943V53.1723H105.72V48.3953Z" fill="black"/>
    <path d="M110.497 48.3953H105.72V53.1723H110.497V48.3953Z" fill="black"/>
    <path d="M120.051 48.3953H115.274V53.1723H120.051V48.3953Z" fill="black"/>
    <path d="M129.605 48.3953H124.828V53.1723H129.605V48.3953Z" fill="black"/>
    <path d="M134.382 48.3953H129.605V53.1723H134.382V48.3953Z" fill="black"/>
    <path d="M158.267 48.3953H153.49V53.1723H158.267V48.3953Z" fill="black"/>
    <path d="M163.044 48.3953H158.267V53.1723H163.044V48.3953Z" fill="black"/>
    <path d="M167.821 48.3953H163.044V53.1723H167.821V48.3953Z" fill="black"/>
    <path d="M172.598 48.3953H167.821V53.1723H172.598V48.3953Z" fill="black"/>
    <path d="M177.375 48.3953H172.598V53.1723H177.375V48.3953Z" fill="black"/>
    <path d="M5.40203 53.1723H0.625V57.9493H5.40203V53.1723Z" fill="black"/>
    <path d="M14.9561 53.1723H10.1791V57.9493H14.9561V53.1723Z" fill="black"/>
    <path d="M19.7331 53.1723H14.9561V57.9493H19.7331V53.1723Z" fill="black"/>
    <path d="M24.5101 53.1723H19.7331V57.9493H24.5101V53.1723Z" fill="black"/>
    <path d="M29.2872 53.1723H24.5101V57.9493H29.2872V53.1723Z" fill="black"/>
    <path d="M43.6182 53.1723H38.8412V57.9493H43.6182V53.1723Z" fill="black"/>
    <path d="M72.2804 53.1723H67.5034V57.9493H72.2804L72.2804 53.1723Z" fill="black"/>
    <path d="M77.0574 53.1723H72.2804L72.2804 57.9493H77.0574V53.1723Z" fill="black"/>
    <path d="M110.497 53.1723H105.72V57.9493H110.497V53.1723Z" fill="black"/>
    <path d="M120.051 53.1723H115.274V57.9493H120.051V53.1723Z" fill="black"/>
    <path d="M134.382 53.1723H129.605V57.9493H134.382V53.1723Z" fill="black"/>
    <path d="M148.713 53.1723H143.936V57.9493H148.713V53.1723Z" fill="black"/>
    <path d="M153.49 53.1723H148.713V57.9493H153.49V53.1723Z" fill="black"/>
    <path d="M163.044 53.1723H158.267V57.9493H163.044V53.1723Z" fill="black"/>
    <path d="M167.821 53.1723H163.044V57.9493H167.821V53.1723Z" fill="black"/>
    <path d="M172.598 53.1723H167.821V57.9493H172.598V53.1723Z" fill="black"/>
    <path d="M177.375 53.1723H172.598V57.9493H177.375V53.1723Z" fill="black"/>
    <path d="M10.1791 57.9493H5.40203V62.7264H10.1791V57.9493Z" fill="black"/>
    <path d="M14.9561 57.9493H10.1791V62.7264H14.9561V57.9493Z" fill="black"/>
    <path d="M24.5101 57.9493H19.7331V62.7264H24.5101V57.9493Z" fill="black"/>
    <path d="M29.2872 57.9493H24.5101V62.7264H29.2872V57.9493Z" fill="black"/>
    <path d="M34.0642 57.9493L29.2872 57.9493V62.7264H34.0642V57.9493Z" fill="black"/>
    <path d="M48.3953 57.9493L43.6182 57.9493V62.7264H48.3953V57.9493Z" fill="black"/>
    <path d="M57.9493 57.9493H53.1723V62.7264H57.9493V57.9493Z" fill="black"/>
    <path d="M62.7264 57.9493H57.9493V62.7264H62.7264V57.9493Z" fill="black"/>
    <path d="M86.6115 57.9493H81.8345V62.7264H86.6115V57.9493Z" fill="black"/>
    <path d="M110.497 57.9493H105.72V62.7264H110.497V57.9493Z" fill="black"/>
    <path d="M143.936 57.9493L139.159 57.9493V62.7264H143.936V57.9493Z" fill="black"/>
    <path d="M158.267 57.9493H153.49V62.7264H158.267V57.9493Z" fill="black"/>
    <path d="M163.044 57.9493H158.267V62.7264H163.044V57.9493Z" fill="black"/>
    <path d="M177.375 57.9493H172.598V62.7264H177.375V57.9493Z" fill="black"/>
    <path d="M5.40203 62.7264L0.625 62.7263V67.5034H5.40203V62.7264Z" fill="black"/>
    <path d="M19.7331 62.7264H14.9561V67.5034H19.7331V62.7264Z" fill="black"/>
    <path d="M29.2872 62.7264H24.5101V67.5034H29.2872V62.7264Z" fill="black"/>
    <path d="M53.1723 62.7264H48.3953V67.5034H53.1723V62.7264Z" fill="black"/>
    <path d="M86.6115 62.7264H81.8345V67.5034H86.6115V62.7264Z" fill="black"/>
    <path d="M91.3885 62.7263L86.6115 62.7264V67.5034H91.3885V62.7263Z" fill="black"/>
    <path d="M115.274 62.7263L110.497 62.7264V67.5034H115.274V62.7263Z" fill="black"/>
    <path d="M120.051 62.7263H115.274V67.5034H120.051V62.7263Z" fill="black"/>
    <path d="M124.828 62.7263H120.051V67.5034H124.828V62.7263Z" fill="black"/>
    <path d="M153.49 62.7264L148.713 62.7263V67.5034H153.49V62.7264Z" fill="black"/>
    <path d="M172.598 62.7264L167.821 62.7263V67.5034H172.598V62.7264Z" fill="black"/>
    <path d="M177.375 62.7264H172.598V67.5034H177.375V62.7264Z" fill="black"/>
    <path d="M5.40203 67.5034H0.625V72.2804H5.40203V67.5034Z" fill="black"/>
    <path d="M24.5101 67.5034H19.7331V72.2804H24.5101V67.5034Z" fill="black"/>
    <path d="M29.2872 67.5034H24.5101V72.2804H29.2872V67.5034Z" fill="black"/>
    <path d="M34.0642 67.5034H29.2872V72.2804H34.0642V67.5034Z" fill="black"/>
    <path d="M43.6182 67.5034H38.8412V72.2804H43.6182V67.5034Z" fill="black"/>
    <path d="M57.9493 67.5034H53.1723V72.2804H57.9493V67.5034Z" fill="black"/>
    <path d="M86.6115 67.5034H81.8345V72.2804H86.6115V67.5034Z" fill="black"/>
    <path d="M91.3885 67.5034H86.6115V72.2804H91.3885V67.5034Z" fill="black"/>
    <path d="M105.72 67.5034H100.943V72.2804H105.72V67.5034Z" fill="black"/>
    <path d="M120.051 67.5034H115.274V72.2804H120.051V67.5034Z" fill="black"/>
    <path d="M129.605 67.5034H124.828V72.2804H129.605V67.5034Z" fill="black"/>
    <path d="M148.713 67.5034H143.936V72.2804H148.713V67.5034Z" fill="black"/>
    <path d="M172.598 67.5034H167.821V72.2804H172.598V67.5034Z" fill="black"/>
    <path d="M177.375 67.5034H172.598V72.2804H177.375V67.5034Z" fill="black"/>
    <path d="M14.9561 72.2804H10.1791V77.0574H14.9561V72.2804Z" fill="black"/>
    <path d="M29.2872 72.2804H24.5101V77.0574H29.2872V72.2804Z" fill="black"/>
    <path d="M38.8412 72.2804H34.0642V77.0574H38.8412V72.2804Z" fill="black"/>
    <path d="M43.6182 72.2804H38.8412V77.0574H43.6182V72.2804Z" fill="black"/>
    <path d="M53.1723 72.2804L48.3953 72.2804V77.0574H53.1723V72.2804Z" fill="black"/>
    <path d="M62.7264 72.2804L57.9493 72.2804L57.9493 77.0574H62.7264V72.2804Z" fill="black"/>
    <path d="M67.5034 72.2804H62.7264V77.0574H67.5034V72.2804Z" fill="black"/>
    <path d="M72.2804 72.2804H67.5034V77.0574H72.2804V72.2804Z" fill="black"/>
    <path d="M96.1655 72.2804L91.3885 72.2804V77.0574H96.1655V72.2804Z" fill="black"/>
    <path d="M105.72 72.2804H100.943V77.0574H105.72V72.2804Z" fill="black"/>
    <path d="M110.497 72.2804L105.72 72.2804V77.0574H110.497V72.2804Z" fill="black"/>
    <path d="M129.605 72.2804H124.828V77.0574H129.605V72.2804Z" fill="black"/>
    <path d="M139.159 72.2804H134.382V77.0574H139.159V72.2804Z" fill="black"/>
    <path d="M143.936 72.2804L139.159 72.2804V77.0574H143.936V72.2804Z" fill="black"/>
    <path d="M148.713 72.2804H143.936V77.0574H148.713V72.2804Z" fill="black"/>
    <path d="M158.267 72.2804H153.49V77.0574H158.267V72.2804Z" fill="black"/>
    <path d="M172.598 72.2804H167.821V77.0574H172.598V72.2804Z" fill="black"/>
    <path d="M19.7331 77.0574L14.9561 77.0574V81.8345H19.7331V77.0574Z" fill="black"/>
    <path d="M34.0642 77.0574H29.2872V81.8345H34.0642V77.0574Z" fill="black"/>
    <path d="M38.8412 77.0574H34.0642V81.8345H38.8412V77.0574Z" fill="black"/>
    <path d="M67.5034 77.0574H62.7264L62.7263 81.8345H67.5034V77.0574Z" fill="black"/>
    <path d="M72.2804 77.0574H67.5034V81.8345H72.2804V77.0574Z" fill="black"/>
    <path d="M77.0574 77.0574L72.2804 77.0574V81.8345H77.0574V77.0574Z" fill="black"/>
    <path d="M81.8345 77.0574H77.0574V81.8345H81.8345V77.0574Z" fill="black"/>
    <path d="M86.6115 77.0574H81.8345V81.8345H86.6115V77.0574Z" fill="black"/>
    <path d="M91.3885 77.0574L86.6115 77.0574V81.8345H91.3885V77.0574Z" fill="black"/>
    <path d="M96.1655 77.0574H91.3885V81.8345H96.1655V77.0574Z" fill="black"/>
    <path d="M100.943 77.0574H96.1655V81.8345H100.943V77.0574Z" fill="black"/>
    <path d="M105.72 77.0574H100.943V81.8345H105.72V77.0574Z" fill="black"/>
    <path d="M139.159 77.0574H134.382V81.8345H139.159V77.0574Z" fill="black"/>
    <path d="M143.936 77.0574H139.159V81.8345H143.936V77.0574Z" fill="black"/>
    <path d="M158.267 77.0574H153.49V81.8345H158.267V77.0574Z" fill="black"/>
    <path d="M163.044 77.0574L158.267 77.0574V81.8345H163.044V77.0574Z" fill="black"/>
    <path d="M167.821 77.0574L163.044 77.0574V81.8345H167.821V77.0574Z" fill="black"/>
    <path d="M172.598 77.0574H167.821V81.8345H172.598V77.0574Z" fill="black"/>
    <path d="M177.375 77.0574L172.598 77.0574V81.8345H177.375V77.0574Z" fill="black"/>
    <path d="M5.40203 81.8345H0.625V86.6115H5.40203V81.8345Z" fill="black"/>
    <path d="M10.1791 81.8345H5.40203V86.6115H10.1791V81.8345Z" fill="black"/>
    <path d="M14.9561 81.8345L10.1791 81.8345V86.6115H14.9561V81.8345Z" fill="black"/>
    <path d="M19.7331 81.8345H14.9561V86.6115H19.7331V81.8345Z" fill="black"/>
    <path d="M29.2872 81.8345L24.5101 81.8345V86.6115H29.2872V81.8345Z" fill="black"/>
    <path d="M38.8412 81.8345H34.0642V86.6115H38.8412V81.8345Z" fill="black"/>
    <path d="M43.6182 81.8345L38.8412 81.8345V86.6115H43.6182V81.8345Z" fill="black"/>
    <path d="M48.3953 81.8345H43.6182V86.6115H48.3953V81.8345Z" fill="black"/>
    <path d="M72.2804 81.8345H67.5034V86.6115H72.2804V81.8345Z" fill="black"/>
    <path d="M81.8345 81.8345H77.0574L77.0574 86.6115H81.8345V81.8345Z" fill="black"/>
    <path d="M91.3885 81.8345H86.6115L86.6115 86.6115H91.3885V81.8345Z" fill="black"/>
    <path d="M105.72 81.8345H100.943V86.6115H105.72V81.8345Z" fill="black"/>
    <path d="M115.274 81.8345H110.497V86.6115H115.274V81.8345Z" fill="black"/>
    <path d="M120.051 81.8345H115.274V86.6115H120.051V81.8345Z" fill="black"/>
    <path d="M129.605 81.8345H124.828V86.6115H129.605V81.8345Z" fill="black"/>
    <path d="M148.713 81.8345L143.936 81.8345V86.6115H148.713V81.8345Z" fill="black"/>
    <path d="M158.267 81.8345H153.49V86.6115H158.267V81.8345Z" fill="black"/>
    <path d="M167.821 81.8345H163.044V86.6115H167.821V81.8345Z" fill="black"/>
    <path d="M5.40203 86.6115H0.625V91.3885H5.40203V86.6115Z" fill="black"/>
    <path d="M24.5101 86.6115H19.7331V91.3885H24.5101V86.6115Z" fill="black"/>
    <path d="M29.2872 86.6115H24.5101V91.3885H29.2872V86.6115Z" fill="black"/>
    <path d="M34.0642 86.6115H29.2872V91.3885H34.0642V86.6115Z" fill="black"/>
    <path d="M57.9493 86.6115H53.1723V91.3885H57.9493V86.6115Z" fill="black"/>
    <path d="M72.2804 86.6115H67.5034V91.3885H72.2804V86.6115Z" fill="black"/>
    <path d="M77.0574 86.6115H72.2804V91.3885H77.0574L77.0574 86.6115Z" fill="black"/>
    <path d="M81.8345 86.6115H77.0574L77.0574 91.3885H81.8345V86.6115Z" fill="black"/>
    <path d="M86.6115 86.6115H81.8345V91.3885H86.6115L86.6115 86.6115Z" fill="black"/>
    <path d="M134.382 86.6115L129.605 86.6115V91.3885H134.382V86.6115Z" fill="black"/>
    <path d="M143.936 86.6115L139.159 86.6115V91.3885H143.936V86.6115Z" fill="black"/>
    <path d="M148.713 86.6115H143.936V91.3885H148.713V86.6115Z" fill="black"/>
    <path d="M153.49 86.6115H148.713V91.3885H153.49V86.6115Z" fill="black"/>
    <path d="M158.267 86.6115H153.49V91.3885H158.267V86.6115Z" fill="black"/>
    <path d="M163.044 86.6115H158.267V91.3885H163.044V86.6115Z" fill="black"/>
    <path d="M5.40203 91.3885H0.625V96.1655H5.40203V91.3885Z" fill="black"/>
    <path d="M43.6182 91.3885H38.8412V96.1655H43.6182V91.3885Z" fill="black"/>
    <path d="M53.1723 91.3885H48.3953V96.1655H53.1723V91.3885Z" fill="black"/>
    <path d="M62.7264 91.3885H57.9493L57.9493 96.1655H62.7264V91.3885Z" fill="black"/>
    <path d="M67.5034 91.3885H62.7264V96.1655H67.5034V91.3885Z" fill="black"/>
    <path d="M72.2804 91.3885H67.5034V96.1655H72.2804V91.3885Z" fill="black"/>
    <path d="M81.8345 91.3885H77.0574L77.0574 96.1655H81.8345V91.3885Z" fill="black"/>
    <path d="M91.3885 91.3885H86.6115L86.6115 96.1655H91.3885V91.3885Z" fill="black"/>
    <path d="M105.72 91.3885H100.943V96.1655H105.72V91.3885Z" fill="black"/>
    <path d="M110.497 91.3885H105.72V96.1655H110.497V91.3885Z" fill="black"/>
    <path d="M120.051 91.3885H115.274V96.1655H120.051V91.3885Z" fill="black"/>
    <path d="M124.828 91.3885H120.051V96.1655H124.828V91.3885Z" fill="black"/>
    <path d="M129.605 91.3885H124.828V96.1655H129.605V91.3885Z" fill="black"/>
    <path d="M143.936 91.3885H139.159V96.1655H143.936V91.3885Z" fill="black"/>
    <path d="M148.713 91.3885H143.936V96.1655H148.713V91.3885Z" fill="black"/>
    <path d="M153.49 91.3885H148.713V96.1655H153.49V91.3885Z" fill="black"/>
    <path d="M163.044 91.3885H158.267V96.1655H163.044V91.3885Z" fill="black"/>
    <path d="M167.821 91.3885H163.044V96.1655H167.821V91.3885Z" fill="black"/>
    <path d="M172.598 91.3885H167.821V96.1655H172.598V91.3885Z" fill="black"/>
    <path d="M177.375 91.3885H172.598V96.1655H177.375V91.3885Z" fill="black"/>
    <path d="M5.40203 96.1655H0.625V100.943H5.40203V96.1655Z" fill="black"/>
    <path d="M10.1791 96.1655H5.40203V100.943H10.1791V96.1655Z" fill="black"/>
    <path d="M14.9561 96.1655H10.1791V100.943H14.9561V96.1655Z" fill="black"/>
    <path d="M19.7331 96.1655H14.9561V100.943H19.7331V96.1655Z" fill="black"/>
    <path d="M34.0642 96.1655H29.2872V100.943H34.0642V96.1655Z" fill="black"/>
    <path d="M48.3953 96.1655H43.6182V100.943H48.3953V96.1655Z" fill="black"/>
    <path d="M57.9493 96.1655H53.1723V100.943H57.9493L57.9493 96.1655Z" fill="black"/>
    <path d="M67.5034 96.1655H62.7264L62.7263 100.943H67.5034V96.1655Z" fill="black"/>
    <path d="M72.2804 96.1655H67.5034V100.943H72.2804V96.1655Z" fill="black"/>
    <path d="M86.6115 96.1655H81.8345L81.8345 100.943H86.6115L86.6115 96.1655Z" fill="black"/>
    <path d="M96.1655 96.1655H91.3885V100.943H96.1655V96.1655Z" fill="black"/>
    <path d="M105.72 96.1655H100.943V100.943H105.72V96.1655Z" fill="black"/>
    <path d="M129.605 96.1655H124.828V100.943H129.605V96.1655Z" fill="black"/>
    <path d="M134.382 96.1655H129.605V100.943H134.382V96.1655Z" fill="black"/>
    <path d="M139.159 96.1655H134.382V100.943H139.159V96.1655Z" fill="black"/>
    <path d="M143.936 96.1655H139.159V100.943H143.936V96.1655Z" fill="black"/>
    <path d="M153.49 96.1655H148.713V100.943H153.49V96.1655Z" fill="black"/>
    <path d="M158.267 96.1655H153.49V100.943H158.267V96.1655Z" fill="black"/>
    <path d="M163.044 96.1655H158.267V100.943H163.044V96.1655Z" fill="black"/>
    <path d="M172.598 96.1655H167.821V100.943H172.598V96.1655Z" fill="black"/>
    <path d="M177.375 96.1655H172.598V100.943H177.375V96.1655Z" fill="black"/>
    <path d="M5.40203 100.943H0.625V105.72H5.40203V100.943Z" fill="black"/>
    <path d="M10.1791 100.943H5.40203V105.72H10.1791V100.943Z" fill="black"/>
    <path d="M14.9561 100.943H10.1791V105.72H14.9561V100.943Z" fill="black"/>
    <path d="M19.7331 100.943H14.9561V105.72H19.7331V100.943Z" fill="black"/>
    <path d="M53.1723 100.943H48.3953V105.72H53.1723V100.943Z" fill="black"/>
    <path d="M72.2804 100.943H67.5034V105.72H72.2804V100.943Z" fill="black"/>
    <path d="M86.6115 100.943H81.8345V105.72H86.6115V100.943Z" fill="black"/>
    <path d="M105.72 100.943H100.943V105.72H105.72V100.943Z" fill="black"/>
    <path d="M167.821 100.943H163.044V105.72H167.821V100.943Z" fill="black"/>
    <path d="M19.7331 105.72H14.9561V110.497H19.7331V105.72Z" fill="black"/>
    <path d="M29.2872 105.72H24.5101V110.497H29.2872V105.72Z" fill="black"/>
    <path d="M34.0642 105.72H29.2872V110.497H34.0642V105.72Z" fill="black"/>
    <path d="M38.8412 105.72H34.0642V110.497H38.8412V105.72Z" fill="black"/>
    <path d="M77.0574 105.72H72.2804L72.2804 110.497H77.0574V105.72Z" fill="black"/>
    <path d="M96.1655 105.72H91.3885V110.497H96.1655V105.72Z" fill="black"/>
    <path d="M105.72 105.72H100.943V110.497H105.72V105.72Z" fill="black"/>
    <path d="M120.051 105.72H115.274V110.497H120.051V105.72Z" fill="black"/>
    <path d="M129.605 105.72H124.828V110.497H129.605V105.72Z" fill="black"/>
    <path d="M172.598 105.72H167.821V110.497H172.598V105.72Z" fill="black"/>
    <path d="M177.375 105.72H172.598V110.497H177.375V105.72Z" fill="black"/>
    <path d="M14.9561 110.497H10.1791V115.274H14.9561V110.497Z" fill="black"/>
    <path d="M19.7331 110.497H14.9561V115.274H19.7331V110.497Z" fill="black"/>
    <path d="M38.8412 110.497H34.0642V115.274H38.8412V110.497Z" fill="black"/>
    <path d="M48.3953 110.497H43.6182V115.274H48.3953V110.497Z" fill="black"/>
    <path d="M53.1723 110.497H48.3953V115.274H53.1723V110.497Z" fill="black"/>
    <path d="M67.5034 110.497H62.7263V115.274H67.5034V110.497Z" fill="black"/>
    <path d="M72.2804 110.497H67.5034V115.274H72.2804L72.2804 110.497Z" fill="black"/>
    <path d="M86.6115 110.497H81.8345V115.274H86.6115V110.497Z" fill="black"/>
    <path d="M91.3885 110.497H86.6115V115.274H91.3885V110.497Z" fill="black"/>
    <path d="M96.1655 110.497H91.3885V115.274H96.1655V110.497Z" fill="black"/>
    <path d="M100.943 110.497H96.1655V115.274H100.943V110.497Z" fill="black"/>
    <path d="M105.72 110.497H100.943V115.274H105.72V110.497Z" fill="black"/>
    <path d="M110.497 110.497H105.72V115.274H110.497V110.497Z" fill="black"/>
    <path d="M115.274 110.497H110.497V115.274H115.274V110.497Z" fill="black"/>
    <path d="M124.828 110.497H120.051V115.274H124.828V110.497Z" fill="black"/>
    <path d="M129.605 110.497H124.828V115.274H129.605V110.497Z" fill="black"/>
    <path d="M139.159 110.497H134.382V115.274H139.159V110.497Z" fill="black"/>
    <path d="M143.936 110.497H139.159V115.274H143.936V110.497Z" fill="black"/>
    <path d="M148.713 110.497H143.936V115.274H148.713V110.497Z" fill="black"/>
    <path d="M153.49 110.497H148.713V115.274H153.49V110.497Z" fill="black"/>
    <path d="M158.267 110.497H153.49V115.274H158.267V110.497Z" fill="black"/>
    <path d="M163.044 110.497H158.267V115.274H163.044V110.497Z" fill="black"/>
    <path d="M167.821 110.497H163.044V115.274H167.821V110.497Z" fill="black"/>
    <path d="M5.40203 115.274H0.625V120.051H5.40203V115.274Z" fill="black"/>
    <path d="M19.7331 115.274H14.9561V120.051H19.7331V115.274Z" fill="black"/>
    <path d="M29.2872 115.274H24.5101V120.051H29.2872V115.274Z" fill="black"/>
    <path d="M34.0642 115.274H29.2872V120.051H34.0642V115.274Z" fill="black"/>
    <path d="M38.8412 115.274H34.0642V120.051H38.8412V115.274Z" fill="black"/>
    <path d="M43.6182 115.274H38.8412V120.051H43.6182V115.274Z" fill="black"/>
    <path d="M48.3953 115.274H43.6182V120.051H48.3953V115.274Z" fill="black"/>
    <path d="M53.1723 115.274H48.3953V120.051H53.1723V115.274Z" fill="black"/>
    <path d="M62.7263 115.274H57.9493V120.051H62.7264L62.7263 115.274Z" fill="black"/>
    <path d="M77.0574 115.274H72.2804L72.2804 120.051H77.0574V115.274Z" fill="black"/>
    <path d="M81.8345 115.274H77.0574V120.051H81.8345L81.8345 115.274Z" fill="black"/>
    <path d="M86.6115 115.274H81.8345L81.8345 120.051H86.6115V115.274Z" fill="black"/>
    <path d="M91.3885 115.274H86.6115V120.051H91.3885V115.274Z" fill="black"/>
    <path d="M96.1655 115.274H91.3885V120.051H96.1655V115.274Z" fill="black"/>
    <path d="M100.943 115.274H96.1655V120.051H100.943V115.274Z" fill="black"/>
    <path d="M105.72 115.274H100.943V120.051H105.72V115.274Z" fill="black"/>
    <path d="M115.274 115.274H110.497V120.051H115.274V115.274Z" fill="black"/>
    <path d="M120.051 115.274H115.274V120.051H120.051V115.274Z" fill="black"/>
    <path d="M134.382 115.274H129.605V120.051H134.382V115.274Z" fill="black"/>
    <path d="M139.159 115.274H134.382V120.051H139.159V115.274Z" fill="black"/>
    <path d="M143.936 115.274H139.159V120.051H143.936V115.274Z" fill="black"/>
    <path d="M158.267 115.274H153.49V120.051H158.267V115.274Z" fill="black"/>
    <path d="M163.044 115.274H158.267V120.051H163.044V115.274Z" fill="black"/>
    <path d="M167.821 115.274H163.044V120.051H167.821V115.274Z" fill="black"/>
    <path d="M172.598 115.274H167.821V120.051H172.598V115.274Z" fill="black"/>
    <path d="M177.375 115.274H172.598V120.051H177.375V115.274Z" fill="black"/>
    <path d="M10.1791 120.051H5.40203V124.828H10.1791V120.051Z" fill="black"/>
    <path d="M14.9561 120.051H10.1791V124.828H14.9561V120.051Z" fill="black"/>
    <path d="M19.7331 120.051H14.9561V124.828H19.7331V120.051Z" fill="black"/>
    <path d="M67.5034 120.051H62.7264L62.7263 124.828H67.5034V120.051Z" fill="black"/>
    <path d="M86.6115 120.051H81.8345L81.8345 124.828H86.6115V120.051Z" fill="black"/>
    <path d="M91.3885 120.051H86.6115V124.828H91.3885V120.051Z" fill="black"/>
    <path d="M129.605 120.051H124.828V124.828H129.605V120.051Z" fill="black"/>
    <path d="M143.936 120.051H139.159V124.828H143.936V120.051Z" fill="black"/>
    <path d="M148.713 120.051H143.936V124.828H148.713V120.051Z" fill="black"/>
    <path d="M163.044 120.051H158.267V124.828H163.044V120.051Z" fill="black"/>
    <path d="M5.40203 124.828H0.625V129.605H5.40203V124.828Z" fill="black"/>
    <path d="M10.1791 124.828H5.40203V129.605H10.1791V124.828Z" fill="black"/>
    <path d="M19.7331 124.828H14.9561V129.605H19.7331V124.828Z" fill="black"/>
    <path d="M24.5101 124.828H19.7331V129.605H24.5101V124.828Z" fill="black"/>
    <path d="M29.2872 124.828H24.5101V129.605H29.2872V124.828Z" fill="black"/>
    <path d="M34.0642 124.828H29.2872V129.605H34.0642V124.828Z" fill="black"/>
    <path d="M38.8412 124.828H34.0642V129.605H38.8412V124.828Z" fill="black"/>
    <path d="M57.9493 124.828H53.1723V129.605H57.9493V124.828Z" fill="black"/>
    <path d="M77.0574 124.828H72.2804V129.605H77.0574V124.828Z" fill="black"/>
    <path d="M110.497 124.828H105.72V129.605H110.497V124.828Z" fill="black"/>
    <path d="M134.382 124.828H129.605V129.605H134.382V124.828Z" fill="black"/>
    <path d="M139.159 124.828H134.382V129.605H139.159V124.828Z" fill="black"/>
    <path d="M148.713 124.828H143.936V129.605H148.713V124.828Z" fill="black"/>
    <path d="M153.49 124.828H148.713V129.605H153.49V124.828Z" fill="black"/>
    <path d="M19.7331 129.605H14.9561V134.382H19.7331V129.605Z" fill="black"/>
    <path d="M38.8412 129.605H34.0642V134.382H38.8412V129.605Z" fill="black"/>
    <path d="M48.3953 129.605H43.6182V134.382H48.3953V129.605Z" fill="black"/>
    <path d="M53.1723 129.605H48.3953V134.382H53.1723V129.605Z" fill="black"/>
    <path d="M57.9493 129.605H53.1723V134.382H57.9493V129.605Z" fill="black"/>
    <path d="M62.7264 129.605H57.9493V134.382H62.7264V129.605Z" fill="black"/>
    <path d="M67.5034 129.605H62.7264V134.382H67.5034V129.605Z" fill="black"/>
    <path d="M72.2804 129.605H67.5034V134.382H72.2804L72.2804 129.605Z" fill="black"/>
    <path d="M77.0574 129.605H72.2804L72.2804 134.382H77.0574V129.605Z" fill="black"/>
    <path d="M81.8345 129.605H77.0574V134.382H81.8345V129.605Z" fill="black"/>
    <path d="M86.6115 129.605H81.8345V134.382H86.6115V129.605Z" fill="black"/>
    <path d="M91.3885 129.605H86.6115V134.382H91.3885V129.605Z" fill="black"/>
    <path d="M96.1655 129.605H91.3885V134.382H96.1655V129.605Z" fill="black"/>
    <path d="M105.72 129.605H100.943V134.382H105.72V129.605Z" fill="black"/>
    <path d="M110.497 129.605H105.72V134.382H110.497V129.605Z" fill="black"/>
    <path d="M115.274 129.605H110.497V134.382H115.274V129.605Z" fill="black"/>
    <path d="M124.828 129.605H120.051V134.382H124.828V129.605Z" fill="black"/>
    <path d="M129.605 129.605H124.828V134.382H129.605V129.605Z" fill="black"/>
    <path d="M134.382 129.605H129.605V134.382H134.382V129.605Z" fill="black"/>
    <path d="M158.267 129.605H153.49V134.382H158.267V129.605Z" fill="black"/>
    <path d="M163.044 129.605H158.267V134.382H163.044V129.605Z" fill="black"/>
    <path d="M167.821 129.605H163.044V134.382H167.821V129.605Z" fill="black"/>
    <path d="M29.2872 134.382H24.5101V139.159H29.2872V134.382Z" fill="black"/>
    <path d="M34.0642 134.382H29.2872V139.159H34.0642V134.382Z" fill="black"/>
    <path d="M38.8412 134.382H34.0642V139.159H38.8412V134.382Z" fill="black"/>
    <path d="M43.6182 134.382H38.8412V139.159H43.6182V134.382Z" fill="black"/>
    <path d="M53.1723 134.382H48.3953V139.159H53.1723V134.382Z" fill="black"/>
    <path d="M57.9493 134.382H53.1723V139.159H57.9493V134.382Z" fill="black"/>
    <path d="M62.7264 134.382H57.9493V139.159H62.7264V134.382Z" fill="black"/>
    <path d="M67.5034 134.382H62.7264V139.159H67.5034V134.382Z" fill="black"/>
    <path d="M77.0574 134.382H72.2804L72.2804 139.159H77.0574V134.382Z" fill="black"/>
    <path d="M86.6115 134.382H81.8345L81.8345 139.159H86.6115V134.382Z" fill="black"/>
    <path d="M96.1655 134.382H91.3885V139.159H96.1655V134.382Z" fill="black"/>
    <path d="M100.943 134.382H96.1655V139.159H100.943V134.382Z" fill="black"/>
    <path d="M105.72 134.382H100.943V139.159H105.72V134.382Z" fill="black"/>
    <path d="M110.497 134.382H105.72V139.159H110.497V134.382Z" fill="black"/>
    <path d="M115.274 134.382H110.497V139.159H115.274V134.382Z" fill="black"/>
    <path d="M120.051 134.382H115.274V139.159H120.051V134.382Z" fill="black"/>
    <path d="M124.828 134.382H120.051V139.159H124.828V134.382Z" fill="black"/>
    <path d="M139.159 134.382H134.382V139.159H139.159V134.382Z" fill="black"/>
    <path d="M143.936 134.382H139.159V139.159H143.936V134.382Z" fill="black"/>
    <path d="M148.713 134.382H143.936V139.159H148.713V134.382Z" fill="black"/>
    <path d="M153.49 134.382H148.713V139.159H153.49V134.382Z" fill="black"/>
    <path d="M158.267 134.382H153.49V139.159H158.267V134.382Z" fill="black"/>
    <path d="M172.598 134.382H167.821V139.159H172.598V134.382Z" fill="black"/>
    <path d="M177.375 134.382H172.598V139.159H177.375V134.382Z" fill="black"/>
    <path d="M48.3953 139.159H43.6182V143.936H48.3953V139.159Z" fill="black"/>
    <path d="M53.1723 139.159H48.3953V143.936H53.1723V139.159Z" fill="black"/>
    <path d="M77.0574 139.159H72.2804V143.936H77.0574V139.159Z" fill="black"/>
    <path d="M86.6115 139.159H81.8345V143.936H86.6115V139.159Z" fill="black"/>
    <path d="M110.497 139.159H105.72V143.936H110.497V139.159Z" fill="black"/>
    <path d="M129.605 139.159H124.828V143.936H129.605V139.159Z" fill="black"/>
    <path d="M134.382 139.159H129.605V143.936H134.382V139.159Z" fill="black"/>
    <path d="M139.159 139.159H134.382V143.936H139.159V139.159Z" fill="black"/>
    <path d="M158.267 139.159H153.49V143.936H158.267V139.159Z" fill="black"/>
    <path d="M163.044 139.159H158.267V143.936H163.044V139.159Z" fill="black"/>
    <path d="M5.40203 143.936H0.625V148.713H5.40203V143.936Z" fill="black"/>
    <path d="M10.1791 143.936H5.40203V148.713H10.1791V143.936Z" fill="black"/>
    <path d="M14.9561 143.936H10.1791V148.713H14.9561V143.936Z" fill="black"/>
    <path d="M19.7331 143.936H14.9561V148.713H19.7331V143.936Z" fill="black"/>
    <path d="M24.5101 143.936H19.7331V148.713H24.5101V143.936Z" fill="black"/>
    <path d="M29.2872 143.936H24.5101V148.713H29.2872V143.936Z" fill="black"/>
    <path d="M34.0642 143.936H29.2872V148.713H34.0642V143.936Z" fill="black"/>
    <path d="M48.3953 143.936H43.6182V148.713H48.3953V143.936Z" fill="black"/>
    <path d="M53.1723 143.936H48.3953V148.713H53.1723V143.936Z" fill="black"/>
    <path d="M62.7264 143.936H57.9493V148.713H62.7264V143.936Z" fill="black"/>
    <path d="M67.5034 143.936H62.7264V148.713H67.5034V143.936Z" fill="black"/>
    <path d="M72.2804 143.936H67.5034V148.713H72.2804L72.2804 143.936Z" fill="black"/>
    <path d="M81.8345 143.936H77.0574L77.0574 148.713H81.8345L81.8345 143.936Z" fill="black"/>
    <path d="M86.6115 143.936H81.8345L81.8345 148.713H86.6115V143.936Z" fill="black"/>
    <path d="M100.943 143.936H96.1655V148.713H100.943V143.936Z" fill="black"/>
    <path d="M105.72 143.936H100.943V148.713H105.72V143.936Z" fill="black"/>
    <path d="M115.274 143.936H110.497V148.713H115.274V143.936Z" fill="black"/>
    <path d="M120.051 143.936H115.274V148.713H120.051V143.936Z" fill="black"/>
    <path d="M124.828 143.936H120.051V148.713H124.828V143.936Z" fill="black"/>
    <path d="M129.605 143.936H124.828V148.713H129.605V143.936Z" fill="black"/>
    <path d="M139.159 143.936H134.382V148.713H139.159V143.936Z" fill="black"/>
    <path d="M148.713 143.936H143.936V148.713H148.713V143.936Z" fill="black"/>
    <path d="M158.267 143.936H153.49V148.713H158.267V143.936Z" fill="black"/>
    <path d="M177.375 143.936H172.598V148.713H177.375V143.936Z" fill="black"/>
    <path d="M5.40203 148.713H0.625V153.49H5.40203V148.713Z" fill="black"/>
    <path d="M34.0642 148.713H29.2872V153.49H34.0642V148.713Z" fill="black"/>
    <path d="M43.6182 148.713H38.8412V153.49H43.6182V148.713Z" fill="black"/>
    <path d="M48.3953 148.713H43.6182V153.49H48.3953V148.713Z" fill="black"/>
    <path d="M53.1723 148.713H48.3953V153.49H53.1723V148.713Z" fill="black"/>
    <path d="M67.5034 148.713H62.7264L62.7263 153.49H67.5034V148.713Z" fill="black"/>
    <path d="M77.0574 148.713H72.2804L72.2804 153.49H77.0574L77.0574 148.713Z" fill="black"/>
    <path d="M86.6115 148.713H81.8345L81.8345 153.49H86.6115V148.713Z" fill="black"/>
    <path d="M91.3885 148.713H86.6115V153.49H91.3885V148.713Z" fill="black"/>
    <path d="M96.1655 148.713H91.3885V153.49H96.1655V148.713Z" fill="black"/>
    <path d="M100.943 148.713H96.1655V153.49H100.943V148.713Z" fill="black"/>
    <path d="M115.274 148.713H110.497V153.49H115.274V148.713Z" fill="black"/>
    <path d="M120.051 148.713H115.274V153.49H120.051V148.713Z" fill="black"/>
    <path d="M134.382 148.713H129.605V153.49H134.382V148.713Z" fill="black"/>
    <path d="M139.159 148.713H134.382V153.49H139.159V148.713Z" fill="black"/>
    <path d="M158.267 148.713H153.49V153.49H158.267V148.713Z" fill="black"/>
    <path d="M167.821 148.713H163.044V153.49H167.821V148.713Z" fill="black"/>
    <path d="M177.375 148.713H172.598V153.49H177.375V148.713Z" fill="black"/>
    <path d="M5.40203 153.49H0.625V158.267H5.40203V153.49Z" fill="black"/>
    <path d="M14.9561 153.49H10.1791V158.267H14.9561V153.49Z" fill="black"/>
    <path d="M19.7331 153.49H14.9561V158.267H19.7331V153.49Z" fill="black"/>
    <path d="M24.5101 153.49H19.7331V158.267H24.5101V153.49Z" fill="black"/>
    <path d="M34.0642 153.49H29.2872V158.267H34.0642V153.49Z" fill="black"/>
    <path d="M53.1723 153.49H48.3953V158.267H53.1723V153.49Z" fill="black"/>
    <path d="M77.0574 153.49H72.2804V158.267H77.0574V153.49Z" fill="black"/>
    <path d="M96.1655 153.49H91.3885V158.267H96.1655V153.49Z" fill="black"/>
    <path d="M115.274 153.49H110.497V158.267H115.274V153.49Z" fill="black"/>
    <path d="M129.605 153.49H124.828V158.267H129.605V153.49Z" fill="black"/>
    <path d="M134.382 153.49H129.605V158.267H134.382V153.49Z" fill="black"/>
    <path d="M139.159 153.49H134.382V158.267H139.159V153.49Z" fill="black"/>
    <path d="M143.936 153.49H139.159V158.267H143.936V153.49Z" fill="black"/>
    <path d="M148.713 153.49H143.936V158.267H148.713V153.49Z" fill="black"/>
    <path d="M153.49 153.49H148.713V158.267H153.49V153.49Z" fill="black"/>
    <path d="M158.267 153.49H153.49V158.267H158.267V153.49Z" fill="black"/>
    <path d="M163.044 153.49H158.267V158.267H163.044V153.49Z" fill="black"/>
    <path d="M167.821 153.49H163.044V158.267H167.821V153.49Z" fill="black"/>
    <path d="M172.598 153.49H167.821V158.267H172.598V153.49Z" fill="black"/>
    <path d="M5.40203 158.267H0.625V163.044H5.40203V158.267Z" fill="black"/>
    <path d="M14.9561 158.267H10.1791V163.044H14.9561V158.267Z" fill="black"/>
    <path d="M19.7331 158.267H14.9561V163.044H19.7331V158.267Z" fill="black"/>
    <path d="M24.5101 158.267H19.7331V163.044H24.5101V158.267Z" fill="black"/>
    <path d="M34.0642 158.267H29.2872V163.044H34.0642V158.267Z" fill="black"/>
    <path d="M48.3953 158.267H43.6182V163.044H48.3953V158.267Z" fill="black"/>
    <path d="M53.1723 158.267H48.3953V163.044H53.1723V158.267Z" fill="black"/>
    <path d="M67.5034 158.267H62.7263V163.044H67.5034V158.267Z" fill="black"/>
    <path d="M72.2804 158.267H67.5034V163.044H72.2804L72.2804 158.267Z" fill="black"/>
    <path d="M77.0574 158.267H72.2804L72.2804 163.044H77.0574V158.267Z" fill="black"/>
    <path d="M86.6115 158.267H81.8345V163.044H86.6115V158.267Z" fill="black"/>
    <path d="M96.1655 158.267H91.3885V163.044H96.1655V158.267Z" fill="black"/>
    <path d="M100.943 158.267H96.1655V163.044H100.943V158.267Z" fill="black"/>
    <path d="M110.497 158.267H105.72V163.044H110.497V158.267Z" fill="black"/>
    <path d="M115.274 158.267H110.497V163.044H115.274V158.267Z" fill="black"/>
    <path d="M134.382 158.267H129.605V163.044H134.382V158.267Z" fill="black"/>
    <path d="M139.159 158.267H134.382V163.044H139.159V158.267Z" fill="black"/>
    <path d="M163.044 158.267H158.267V163.044H163.044V158.267Z" fill="black"/>
    <path d="M172.598 158.267H167.821V163.044H172.598V158.267Z" fill="black"/>
    <path d="M177.375 158.267H172.598V163.044H177.375V158.267Z" fill="black"/>
    <path d="M5.40203 163.044H0.625V167.821H5.40203V163.044Z" fill="black"/>
    <path d="M14.9561 163.044H10.1791V167.821H14.9561V163.044Z" fill="black"/>
    <path d="M19.7331 163.044H14.9561V167.821H19.7331V163.044Z" fill="black"/>
    <path d="M24.5101 163.044H19.7331V167.821H24.5101V163.044Z" fill="black"/>
    <path d="M34.0642 163.044H29.2872V167.821H34.0642V163.044Z" fill="black"/>
    <path d="M43.6182 163.044H38.8412V167.821H43.6182V163.044Z" fill="black"/>
    <path d="M53.1723 163.044H48.3953V167.821H53.1723V163.044Z" fill="black"/>
    <path d="M72.2804 163.044H67.5034V167.821H72.2804V163.044Z" fill="black"/>
    <path d="M86.6115 163.044H81.8345V167.821H86.6115V163.044Z" fill="black"/>
    <path d="M91.3885 163.044H86.6115V167.821H91.3885V163.044Z" fill="black"/>
    <path d="M110.497 163.044H105.72V167.821H110.497V163.044Z" fill="black"/>
    <path d="M163.044 163.044H158.267V167.821H163.044V163.044Z" fill="black"/>
    <path d="M5.40203 167.821H0.625V172.598H5.40203V167.821Z" fill="black"/>
    <path d="M34.0642 167.821H29.2872V172.598H34.0642V167.821Z" fill="black"/>
    <path d="M48.3953 167.821H43.6182V172.598H48.3953V167.821Z" fill="black"/>
    <path d="M77.0574 167.821H72.2804L72.2804 172.598H77.0574V167.821Z" fill="black"/>
    <path d="M81.8345 167.821H77.0574V172.598H81.8345L81.8345 167.821Z" fill="black"/>
    <path d="M86.6115 167.821H81.8345L81.8345 172.598H86.6115V167.821Z" fill="black"/>
    <path d="M100.943 167.821H96.1655V172.598H100.943V167.821Z" fill="black"/>
    <path d="M115.274 167.821H110.497V172.598H115.274V167.821Z" fill="black"/>
    <path d="M143.936 167.821H139.159V172.598H143.936V167.821Z" fill="black"/>
    <path d="M148.713 167.821H143.936V172.598H148.713V167.821Z" fill="black"/>
    <path d="M153.49 167.821H148.713V172.598H153.49V167.821Z" fill="black"/>
    <path d="M158.267 167.821H153.49V172.598H158.267V167.821Z" fill="black"/>
    <path d="M5.40203 172.598H0.625V177.375H5.40203V172.598Z" fill="black"/>
    <path d="M10.1791 172.598H5.40203V177.375H10.1791V172.598Z" fill="black"/>
    <path d="M14.9561 172.598H10.1791V177.375H14.9561V172.598Z" fill="black"/>
    <path d="M19.7331 172.598H14.9561V177.375H19.7331V172.598Z" fill="black"/>
    <path d="M24.5101 172.598H19.7331V177.375H24.5101V172.598Z" fill="black"/>
    <path d="M29.2872 172.598H24.5101V177.375H29.2872V172.598Z" fill="black"/>
    <path d="M34.0642 172.598H29.2872V177.375H34.0642V172.598Z" fill="black"/>
    <path d="M43.6182 172.598H38.8412V177.375H43.6182V172.598Z" fill="black"/>
    <path d="M48.3953 172.598H43.6182V177.375H48.3953V172.598Z" fill="black"/>
    <path d="M53.1723 172.598H48.3953V177.375H53.1723V172.598Z" fill="black"/>
    <path d="M62.7264 172.598H57.9493V177.375H62.7264V172.598Z" fill="black"/>
    <path d="M67.5034 172.598H62.7264V177.375H67.5034V172.598Z" fill="black"/>
    <path d="M72.2804 172.598H67.5034V177.375H72.2804L72.2804 172.598Z" fill="black"/>
    <path d="M86.6115 172.598H81.8345L81.8345 177.375H86.6115V172.598Z" fill="black"/>
    <path d="M91.3885 172.598H86.6115V177.375H91.3885V172.598Z" fill="black"/>
    <path d="M105.72 172.598H100.943V177.375H105.72V172.598Z" fill="black"/>
    <path d="M110.497 172.598H105.72V177.375H110.497V172.598Z" fill="black"/>
    <path d="M115.274 172.598H110.497V177.375H115.274V172.598Z" fill="black"/>
    <path d="M124.828 172.598H120.051V177.375H124.828V172.598Z" fill="black"/>
    <path d="M129.605 172.598H124.828V177.375H129.605V172.598Z" fill="black"/>
    <path d="M143.936 172.598H139.159V177.375H143.936V172.598Z" fill="black"/>
    <path d="M148.713 172.598H143.936V177.375H148.713V172.598Z" fill="black"/>
    <path d="M153.49 172.598H148.713V177.375H153.49V172.598Z" fill="black"/>
    <path d="M158.267 172.598H153.49V177.375H158.267V172.598Z" fill="black"/>
    <path d="M167.821 172.598H163.044V177.375H167.821V172.598Z" fill="black"/>
    <path d="M177.375 172.598H172.598V177.375H177.375V172.598Z" fill="black"/>
</svg>
