<svg width="74" height="82" viewBox="0 0 74 82" fill="none" xmlns="http://www.w3.org/2000/svg">
    <path fill-rule="evenodd" clip-rule="evenodd" d="M15 0C6.71573 0 0 6.71575 0 15V66.0096C0 74.2939 6.71574 81.0096 15 81.0096H58.0848C66.369 81.0096 73.0848 74.2939 73.0848 66.0096V0H15ZM28.2 42.68C26.9733 44.4933 26.36 46.7867 26.36 49.56H38.44C38.44 47.8533 38.8933 46.4133 39.8 45.24C40.7067 44.0133 42.1467 42.52 44.12 40.76C45.7733 39.2667 47.1067 37.96 48.12 36.84C49.1867 35.6667 50.0667 34.2533 50.76 32.6C51.5067 30.9467 51.88 29.0267 51.88 26.84C51.88 22.2 50.0133 18.5733 46.28 15.96C42.6 13.3467 37.6933 12.04 31.56 12.04C26.3333 12.04 21.8 12.9733 17.96 14.84C14.1733 16.7067 11.16 19.3467 8.92 22.76L18.6 28.44C19.9333 26.5733 21.56 25.1333 23.48 24.12C25.4533 23.0533 27.6933 22.52 30.2 22.52C32.8133 22.52 34.8933 23.1067 36.44 24.28C38.04 25.4 38.84 26.9467 38.84 28.92C38.84 30.3067 38.4133 31.56 37.56 32.68C36.76 33.7467 35.48 35.08 33.72 36.68C31.32 38.8667 29.48 40.8667 28.2 42.68ZM26.92 67.56C28.4133 68.9467 30.2533 69.64 32.44 69.64C34.6267 69.64 36.44 68.9467 37.88 67.56C39.3733 66.12 40.12 64.3867 40.12 62.36C40.12 60.3333 39.4 58.6533 37.96 57.32C36.52 55.9333 34.68 55.24 32.44 55.24C30.2 55.24 28.36 55.9333 26.92 57.32C25.48 58.6533 24.76 60.3333 24.76 62.36C24.76 64.3867 25.48 66.12 26.92 67.56Z" fill="white"/>
</svg>
