<svg width="111" height="27" viewBox="0 0 111 27" fill="none" xmlns="http://www.w3.org/2000/svg">
    <path d="M28.1169 15.9237L23.2669 20.792C22.8642 21.213 22.8642 21.8719 23.2669 22.2928L26.9638 26.0081C27.5861 26.6304 28.6293 26.6304 29.2516 26.0081L40.5988 14.8073C41.2211 14.185 41.2211 13.1601 40.5988 12.5379L29.2516 1.35537C28.6293 0.733105 27.5861 0.733105 26.9638 1.35537L23.2669 5.07067C22.8642 5.47331 22.8642 6.15048 23.2669 6.57143L28.1169 11.4397C29.3797 12.6294 29.3797 14.6792 28.1169 15.9237Z" fill="#0A6E5C"/>
    <path d="M13.5487 15.9237L18.3987 20.792C18.8014 21.213 18.8014 21.8719 18.3987 22.2928L14.7017 26.0081C14.0795 26.6304 13.0363 26.6304 12.414 26.0081L1.0668 14.8073C0.444531 14.185 0.444531 13.1601 1.0668 12.5379L12.414 1.35537C13.0363 0.733105 14.0795 0.733105 14.7017 1.35537L18.3987 5.07067C18.8014 5.47331 18.8014 6.15048 18.3987 6.57143L13.5487 11.4397C12.2859 12.6294 12.2859 14.6792 13.5487 15.9237Z" fill="#21BF73"/>
    <path d="M14.8299 14.5879C14.3175 14.0754 14.3175 13.2519 14.8299 12.7394L19.9179 7.65143C20.4303 7.13898 21.2539 7.13898 21.7663 7.65143L26.8543 12.7394C27.3667 13.2519 27.3667 14.0754 26.8543 14.5879L21.7663 19.6759C21.2539 20.1883 20.4303 20.1883 19.9179 19.6759L14.8299 14.5879Z" fill="#21BF73"/>
    <path d="M62.7994 21.3228H59.1756L57.1807 16.1067C57.016 15.7041 56.7781 15.4112 56.4303 15.2465C56.1009 15.0818 55.6983 15.0086 55.2041 15.0086H52.9896V21.3228H49.622V5.65625H56.5767C58.3886 5.65625 59.7613 6.0589 60.6947 6.84588C61.6281 7.63287 62.1039 8.7676 62.1039 10.2501C62.1039 11.2933 61.8294 12.1901 61.2803 12.9405C60.7313 13.6909 59.9626 14.2216 58.9377 14.551C59.8528 14.7341 60.53 15.3746 60.9326 16.4728L62.7994 21.3228ZM56.0643 12.3914C57.0343 12.3914 57.7664 12.2267 58.2056 11.9156C58.6632 11.5861 58.8828 11.0554 58.8828 10.3599C58.8828 9.6644 58.6632 9.13364 58.2056 8.82251C57.7481 8.49307 57.0343 8.31005 56.0643 8.31005H52.953V12.4097H56.0643V12.3914ZM76.05 10.1769V21.3411H72.7923V19.6939C72.4628 20.2613 71.987 20.7188 71.3647 21.03C70.7424 21.3594 70.0653 21.5058 69.2783 21.5058C68.3083 21.5058 67.4664 21.2679 66.716 20.8104C65.9839 20.3345 65.4166 19.6756 64.9773 18.8154C64.5747 17.9369 64.3551 16.9303 64.3551 15.7773C64.3551 14.6243 64.5564 13.6176 64.9773 12.7208C65.3983 11.824 65.9839 11.1286 66.7343 10.6527C67.4847 10.1586 68.3266 9.90233 69.2783 9.90233C70.047 9.90233 70.7424 10.067 71.3647 10.4148C71.987 10.7442 72.4445 11.2018 72.7923 11.7874V10.1769H76.05ZM70.2483 18.9801C71.0719 18.9801 71.6942 18.7056 72.1334 18.1383C72.5726 17.5892 72.7923 16.7656 72.7923 15.7224C72.7923 14.6609 72.5726 13.8556 72.1334 13.3065C71.6942 12.7391 71.0719 12.4463 70.2483 12.4463C69.4247 12.4463 68.8024 12.7391 68.3449 13.3248C67.8873 13.9105 67.6677 14.7341 67.6677 15.7773C67.6677 16.8205 67.8873 17.6258 68.3266 18.1749C68.7658 18.7056 69.4247 18.9801 70.2483 18.9801ZM92.3204 9.88403C93.5833 9.88403 94.535 10.2684 95.1389 11.0554C95.7612 11.824 96.0723 12.9954 96.0723 14.5694V21.3228H92.7597V14.6792C92.7597 13.9105 92.6316 13.3431 92.3936 13.0137C92.1374 12.6659 91.7348 12.4829 91.1674 12.4829C90.4902 12.4829 89.9778 12.7208 89.6117 13.1784C89.2457 13.6542 89.0627 14.3131 89.0627 15.155V21.3228H85.75V14.6792C85.75 13.9105 85.6219 13.3614 85.3474 13.0137C85.0912 12.6659 84.6885 12.4829 84.1395 12.4829C83.4623 12.4829 82.9498 12.7208 82.5655 13.1784C82.1995 13.6542 82.0164 14.3131 82.0164 15.155V21.3228H78.7038V13.3614C78.7038 12.1718 78.6489 11.1103 78.5208 10.1769H81.6321L81.8334 11.8423C82.1629 11.2201 82.6387 10.7259 83.2427 10.3965C83.8649 10.067 84.5604 9.88403 85.3474 9.88403C86.9946 9.88403 88.0927 10.5795 88.6417 11.9522C89.0078 11.3299 89.5019 10.8174 90.1608 10.4514C90.8197 10.067 91.5335 9.88403 92.3204 9.88403ZM105.48 9.88403C106.431 9.88403 107.273 10.1403 108.024 10.6344C108.774 11.1103 109.341 11.8057 109.762 12.7025C110.183 13.5993 110.403 14.6243 110.403 15.759C110.403 16.912 110.201 17.9186 109.78 18.7971C109.378 19.6573 108.792 20.3345 108.042 20.7921C107.291 21.2679 106.45 21.4875 105.48 21.4875C104.711 21.4875 104.015 21.3228 103.393 21.0117C102.771 20.6822 102.313 20.243 101.984 19.6756V26.4474H98.6712V13.3614C98.6712 12.1718 98.6163 11.1103 98.4882 10.1769H101.6L101.819 12.0254C102.112 11.3665 102.588 10.8357 103.228 10.4697C103.906 10.067 104.656 9.88403 105.48 9.88403ZM104.546 18.9801C105.37 18.9801 105.992 18.7056 106.431 18.1566C106.87 17.6075 107.09 16.8022 107.09 15.759C107.09 14.7158 106.87 13.9105 106.413 13.3065C105.974 12.7208 105.351 12.428 104.546 12.428C103.723 12.428 103.1 12.7208 102.643 13.2882C102.203 13.8373 101.984 14.6609 101.984 15.7041C101.984 16.7656 102.203 17.5709 102.643 18.12C103.1 18.7056 103.723 18.9801 104.546 18.9801Z" fill="#22272F"/>
</svg>
