<svg width="30" height="30" viewBox="0 0 30 30" fill="none" xmlns="http://www.w3.org/2000/svg">
    <path d="M29.4536 14.7671C29.4536 22.8797 22.8772 29.4563 14.7647 29.4563C6.65212 29.4563 0.0756531 22.8797 0.0756531 14.7671C0.0756531 6.65464 6.65212 0.0781708 14.7647 0.0781708C22.8771 0.0781708 29.4536 6.65464 29.4536 14.7671Z" fill="#00A478"/>
    <path d="M13.2584 14.51V11.9402H9.77301V9.68765H19.5126V11.9719H16.0272V14.51H13.2584Z" fill="white"/>
    <path fill-rule="evenodd" clip-rule="evenodd" d="M8.2746 14.7955C8.2746 13.9389 11.076 13.2409 14.5614 13.2409C18.0468 13.2409 20.8481 13.9389 20.8481 14.7955C20.8481 15.6521 18.0468 16.35 14.5614 16.35C11.076 16.35 8.2746 15.6521 8.2746 14.7955ZM20.327 14.7955C20.099 14.4782 18.2097 13.4947 14.5614 13.4947C10.9131 13.4947 9.02381 14.4465 8.7958 14.7955C9.02381 15.1127 10.9131 15.5886 14.5614 15.5886C18.2422 15.5886 20.099 15.1127 20.327 14.7955Z" fill="white"/>
    <path d="M16.0273 15.3031V13.5265C15.5712 13.4947 15.0826 13.463 14.594 13.463C14.138 13.463 13.7145 13.463 13.291 13.4947V15.2714C13.6819 15.2714 14.138 15.3031 14.594 15.3031C15.0826 15.3348 15.5712 15.3348 16.0273 15.3031Z" fill="white"/>
    <path d="M14.5614 16.35C14.1053 16.35 13.6819 16.35 13.2584 16.3183V21.0454H15.9946V16.2866C15.5386 16.3183 15.05 16.35 14.5614 16.35Z" fill="white"/>
</svg>
