<svg width="16" height="15" viewBox="0 0 16 15" fill="none" xmlns="http://www.w3.org/2000/svg">
    <path d="M6.9416 6.3787V3.20538H2.78171V0.423828H14.4061V3.24456H10.2462V6.3787H6.9416Z" fill="#00A478"/>
    <path fill-rule="evenodd" clip-rule="evenodd" d="M0.993378 6.73167C0.993378 5.6739 4.33684 4.81201 8.49673 4.81201C12.6566 4.81201 16.0001 5.6739 16.0001 6.73167C16.0001 7.78945 12.6566 8.65134 8.49673 8.65134C4.33684 8.65134 0.993378 7.78945 0.993378 6.73167ZM15.3781 6.73151C15.1059 6.33975 12.851 5.12527 8.49675 5.12527C4.14247 5.12527 1.88758 6.30057 1.61544 6.73151C1.88758 7.12328 4.14247 7.71093 8.49675 7.71093C12.8899 7.71093 15.1059 7.12328 15.3781 6.73151Z" fill="#00A478"/>
    <path d="M10.2459 7.3577V5.1638C9.70162 5.12463 9.11845 5.08545 8.53529 5.08545C7.99101 5.08545 7.4856 5.08545 6.98019 5.12463V7.31853C7.44672 7.31853 7.99101 7.3577 8.53529 7.3577C9.11845 7.39688 9.70162 7.39688 10.2459 7.3577Z" fill="#00A478"/>
    <path d="M8.49656 8.65062C7.95228 8.65062 7.44687 8.65062 6.94147 8.61144V14.4488H10.2072V8.57227C9.66289 8.61144 9.07973 8.65062 8.49656 8.65062Z" fill="#00A478"/>
</svg>
