<svg width="30" height="8" viewBox="0 0 30 8" fill="none" xmlns="http://www.w3.org/2000/svg">
    <path fill-rule="evenodd" clip-rule="evenodd" d="M15.5153 2.55756C15.4982 3.67194 16.718 4.29382 17.6368 4.66356C18.5809 5.04297 18.898 5.28624 18.8944 5.62545C18.8872 6.14471 18.1413 6.3738 17.4432 6.38272C16.2252 6.39833 15.5171 6.1112 14.9541 5.894L14.5154 7.58932C15.0802 7.80435 16.1261 7.99182 17.2108 8C19.7566 8 21.4222 6.96224 21.4312 5.35319C21.4411 3.31117 18.0107 3.19808 18.0341 2.2853C18.0422 2.00858 18.362 1.71322 19.0629 1.63809C19.4097 1.60019 20.3673 1.57114 21.4528 1.98399L21.8789 0.343733C21.2952 0.168151 20.5447 0 19.6106 0C17.2144 0 15.5289 1.05189 15.5153 2.55756ZM25.9733 0.141334C25.5085 0.141334 25.1166 0.365286 24.9418 0.708958L21.3051 7.87948H23.8491L24.3553 6.72416H27.4642L27.7579 7.87948H30.0001L28.0434 0.141334H25.9733ZM26.3291 2.23173L27.0633 5.13742H25.0526L26.3291 2.23173ZM12.4309 0.141334L10.4256 7.87948H12.8497L14.8541 0.141334H12.4309ZM8.84459 0.141334L6.32129 5.40819L5.30061 0.929876C5.18084 0.430007 4.70789 0.141334 4.18266 0.141334H0.0577358L6.10352e-05 0.36603C0.846886 0.517768 1.80899 0.762531 2.39181 1.02439C2.74851 1.1843 2.85036 1.32415 2.96744 1.7043L4.90064 7.87948H7.46271L11.3904 0.141334H8.84459Z" fill="#184C9B"/>
</svg>
